<?xml version='1.0' encoding='utf-8'?>
<svg xmlns="http://www.w3.org/2000/svg" width="7.20892in" height="8.67234in" version="1.1" style="shape-rendering:geometricPrecision; text-rendering:geometricPrecision; image-rendering:optimizeQuality; fill-rule:evenodd; clip-rule:evenodd" viewBox="0 0 7203.31 8665.59"> <defs> <style type="text/css">  .fil5 {fill:#FEFEFE} .fil1 {fill:#FFFAC7} .fil20 {fill:#FFF000} .fil17 {fill:#F9BF00} .fil15 {fill:#AC6249} .fil11 {fill:#D0753B} .fil22 {fill:#EA5B3E} .fil16 {fill:#E62129} .fil3 {fill:#EDEF9A} .fil10 {fill:#DAE251} .fil14 {fill:#BBE3F8} .fil0 {fill:#C3D955} .fil12 {fill:#C4D70D} .fil2 {fill:#ACCE22} .fil4 {fill:#6DBE86} .fil19 {fill:#11BAEE} .fil9 {fill:#00AA65} .fil21 {fill:#00A2E9} .fil18 {fill:#009B4C} .fil6 {fill:#A7C8C3} .fil8 {fill:#C1D9D6} .fil7 {fill:#C3DBD7} .fil24 {fill:#FEABA0} .fil23 {fill:#FFD2CC} .fil13 {fill:#FFFFFD}  </style> </defs> <g id="Layer_x0020_1"> <metadata id="CorelCorpID_0Corel-Layer"/> <g id="_2772584874640"> <path class="fil0" d="M1493.23 7510.72c-7.45,-30.25 -6.42,-17.23 6.33,-30.71 25.02,7.64 23.85,7.45 14.92,33.2l-21.25 -2.49zm2152.5 -327.64l78 -231.43c27.5,-84.25 49.89,-175.69 42.98,-267.17 -2.19,-28.88 -16.92,-65.07 -2.06,-90.68 32.92,-2.06 35.44,27.93 43.69,65.21 44.13,199.67 -58.23,368.83 -129.37,541.87 -22.48,54.67 -14.12,57.94 -41.29,68.11 -16.39,-21.46 -1.21,-56.14 8.06,-85.92zm-159.33 -112.76c-25.64,-39.91 53.33,-352.16 63.86,-400.58 11.96,-54.92 12.63,-107.61 36.99,-120.76 21.77,14.47 12.41,25.24 4.55,60.33l-105.41 461.01zm-2240.22 -305.64c-20.12,-8.9 -17,-6.09 -22.45,-36.54 -30.28,-169.01 -55.5,-545.95 36.86,-665.93 17.3,25.1 11.42,94.01 11.29,183.06l-12.79 444.54c-1.05,47.75 4.41,53.06 -12.91,74.86zm1966.5 323.57c-12.42,-19.12 -8.09,-21.05 -5.28,-49.94 12.32,-126.17 84.13,-698.23 113.33,-725.05 32.34,45.73 -44.8,496.75 -63.33,596.55 -6.27,33.76 -11.68,63.29 -18.12,96.9 -14.11,73.82 -3.56,68.58 -26.6,81.54zm-1617.61 -453.99c0,-94.82 13.9,-192.57 46.96,-280.88 26.2,-69.95 22.26,-60.06 43.54,-65.85 13.39,26.79 -22.03,151.47 -26.31,195.95 -17.88,185.77 6.62,384.95 6.64,575.78 0.01,99.06 5.86,88.01 -27.63,95.39l-43.22 -520.39zm-1523.03 -883.93c31.82,27.97 118.76,270.75 159.63,310.47 0.17,-79.51 -15.46,-406.27 2.21,-456.8 28.2,12.11 20.67,27.86 21.09,64.8 1.55,139.15 -3.34,240.32 10.75,382.66l10.07 143.57c0.48,-1.01 1.84,4.95 3.45,6.98l-0.57 -31.4c14.08,12.46 1.31,-12.04 12.85,18.24 12.37,-16.86 29.77,-248.31 37.42,-297.76 7.59,-49.04 35.47,-235.41 60.02,-260.36 11.53,20.19 1.88,61.28 -0.81,85.9 24.21,-28.78 5.15,-51.98 43.24,-59.9 12.39,14.66 11.84,0.17 7.29,31.42 -3.21,22.03 -42.72,100.91 -50.28,226.42l-3.52 -24.74c-17.3,25.68 -10.68,430.67 4.45,463.57 30.31,56.11 71.68,123.26 106.8,173.77 20.23,29.11 37.61,55.78 54.81,82.09 30.76,47.08 42.68,39.12 41.23,111.4 17.49,-32.01 3.07,-66.17 8.4,-153.69 2.93,-48.28 6.86,-96.55 8.94,-144.89 7.53,-175.26 6.18,-397.68 55.13,-563.37 24.8,-83.95 31.44,-96.85 67.61,-170.25 12.25,-24.87 12.84,-28.15 33.6,-40.82 5,61.52 -22.66,245.6 -27.92,323.78 -7.66,113.98 -10.47,231.4 -11.21,345.9 -0.51,79.45 8.61,485.11 1.7,533.05 -6.16,42.8 -5.31,126.91 6.4,165.32l-1.57 -153.39 63.5 76.33c16.11,-7.47 24.24,-11.57 48.09,-9.46 -32.31,-139.62 -47.19,-436.12 -41.61,-583.03 2.23,-58.58 42.09,-472.95 111.58,-506.27 35.5,18.37 34.97,90.85 38.55,130.8 15.63,174.56 -16.43,738.39 -38.71,929.58 -9.89,84.82 -2.47,112.76 -43.69,115.41 19.76,39.48 79.81,66.14 84.55,115.14 4.68,48.47 -18.07,156.48 5.48,191.18 19.63,-68.7 -5.73,-190.16 -2.43,-262.96 3.79,-83.84 10.95,-167.45 13.35,-251.86 2.91,-102.88 -7.56,-432.48 28.93,-505l-2.5 34.08c25.25,-31.35 49.08,-374.93 103.76,-434.88 11.31,21.95 -10.05,79.88 -17.07,110.57 35.34,-28.58 46.5,-94.3 96.31,-108.57l6.99 24.95c0.36,4.73 -1.82,19.94 -2.69,25.28 -41.26,252.02 -57.24,430.6 -65,695.04 -3.95,134.44 -4.68,269.23 3.75,403.47 3.89,62.12 10.82,133.19 11.09,194.45 0.21,47.17 -16.73,161.85 -7.08,200.24l4.42 11.2c2.5,9.29 2.43,9.74 4.41,19.26l9.96 37.02c0.07,-23.42 -5.04,-34.88 -5.01,-58.84 0.02,-24.1 5.22,-35.2 5.31,-58.36 -18.18,-22.22 -11.57,-74.24 -8.11,-104.99l100.08 82.64c9.02,-10.28 4.91,0.87 7.18,-20.54l-10.92 -187.15c-2.61,-69.32 -3.48,-138.94 -5.28,-208.62 -0.74,-28.57 -11.76,-83.34 13.09,-97.62 66.05,-37.94 34.13,175.03 38.77,279.35 16.38,-49.41 10.27,-146.35 18.4,-206.3 14.05,-103.58 92.68,-462.03 158.66,-483.93 9.2,28.14 -19,219.44 -20.83,271.12 -3.37,95.59 -0.69,192.42 5.67,287.59 12.26,183.27 28.28,368.31 41.61,551.18 73.38,45.46 174.21,112.54 262.59,150.73 -2.57,-117.85 -17.58,-237.47 -29.12,-354.03 -8.87,-89.64 -18.03,-184.82 3.56,-273.63 1.69,-6.94 9.07,-34.62 11.49,-38.91 17.18,-30.45 2.45,-13.13 27.36,-21.13 12.52,23.95 2.36,10.84 8.86,32.35 64.28,212.57 80.63,492.94 96.72,712.39l4.62 3.55 81.32 30.13c-22.79,-118.36 -29.98,-244.94 -27.85,-367.47l32.3 -350.01c0.37,-3.24 1.46,-4.04 2.47,-5.92l8.4 -543.97c6.04,-32.18 -0.25,-13.22 12.4,-24.16 23.01,15.62 14.55,34.47 13.1,66.76l-1.11 239.33c11.57,-17.19 13.49,-35.81 17.63,-57.79l59.94 -271.5c20.58,-89.5 7.41,-85.61 40.1,-91.12 28.55,35.89 4.48,145.17 1.08,195.68l-75.4 1254.7c-6.78,29.06 -7.95,66.56 -1.88,95.01 17.13,-17.24 6.67,-73.08 11.41,-101.42 25.65,-13.23 14,-26.56 28.76,-95.49 13.43,-62.75 59.76,-227.09 107.05,-249.68 18.16,28.55 -13.14,127.67 -17.54,171.79 -6.68,67.17 -10.24,139.2 -7.33,207.08l142.21 37.47c0.26,-82.13 5.08,-364.88 74.68,-393.97 -0.91,28.65 -30.3,81.44 -35.29,205.06l-4.94 255.39c9.18,-20.96 6.48,-27.01 6.56,-55.18l112.26 21.5c-24.16,-78.81 -0.54,-446.3 8.93,-547.2 16.04,-171.02 44.68,-320.75 84.56,-479.75l1.59 11.99c20.14,-25.28 28.36,-130.41 39.97,-170.54 15.54,-53.76 32.23,-106.19 53.06,-155.72 12.84,-30.55 119.83,-273.48 153.19,-249.64 5.12,3.67 23.64,-6.14 -6.83,49.89 -56.18,103.32 -110.39,244.19 -139.14,358.64 -71.04,282.62 -38.86,353.48 -65.79,500.85 -27.84,-4.21 -26.13,-0.92 -31.93,-29.72l-7.27 -160.61c-25.99,64.16 -53.6,571.08 -53.44,672.07 37.11,14.89 27.23,20.76 43.32,97.49 7.11,33.96 12.42,95.59 25.42,121.78 22.09,-8.14 145.12,2.08 173.43,11.24l-0.2 50.38c20.1,-38.4 1.97,-66.11 12.34,-172.87 9.54,-98.21 43.99,-394.44 101.9,-446l5.17 24.95c-0.07,0.54 -41.23,117.42 -58.54,235.95 -10.81,74 -18.91,249.62 -40.24,306.96 48.16,-4.68 14.72,-4.23 26.64,7.84l-4.6 53.74c27.07,-47.25 6.64,-51.41 8.34,-101.74 4.3,-127.28 77.9,-497.4 107,-613.24 12.53,-49.86 160.99,-588.39 205.99,-610.84 15.44,26.61 -23.75,100.81 -36.18,138.12l-128.12 455.12c-48.21,206.7 -96.17,451.16 -115.56,666.43l78.22 -4.28c18.98,-100.54 34.6,-195.78 49.47,-295.73 11.72,-78.71 15.54,-234.71 59.02,-284.44 77.59,-8.52 76.26,28.59 67.97,93.71 -6.89,54.2 -11.89,109.77 -17.19,164.4 -10.48,108.05 -30.98,211.45 -42.34,313.72l30.4 -3.44c62.11,-1.81 20.96,-9.45 37.08,14.04 1.22,-2.16 2.13,-7.97 2.46,-7.03l3.78 -14.25c5.91,-41.31 -7.91,-36.6 10.59,-68.16 36.63,-62.5 146.41,-475.54 178.38,-577.2 11.93,-37.9 22.3,-72.44 33.92,-110.14 23.31,-75.58 15.27,-91.89 49.79,-95.08 18.44,29.58 -39.34,170.09 -50.82,208.47 -23.33,78.03 -183.46,604.34 -185.49,638.01l237.17 -52.88c37.8,-36.46 62.26,-191.19 80.84,-250.49 3.89,-12.42 9.51,-33.62 13.61,-43.93 13.14,-33.09 3.57,-23.6 37.67,-24.46 10.79,28.35 -48.17,230.13 -53.69,289.32 17.06,-4.61 28.06,-9.28 43.76,-15.09 25.63,-9.49 25.92,-17.01 34.17,-2.59l14.89 -27.01c4.69,-8.79 6.48,-12 12.77,-22.36 267.34,-440.96 311.96,-476.97 516.43,-1010.63l147.61 -357.48c14.19,-18.28 -5.94,-3.39 21.12,-17.5 -42.83,435.73 -294.81,1042.83 -503.03,1308.99 7.36,5.04 11.15,7 19.26,13.38 8.45,-3.44 18.47,-10.21 25.52,-13.07l16.42 -2.33c0.42,-1.26 2.36,0.8 3.5,1.33 12.21,-12.54 5.09,-9.04 28.14,-11.56 10.31,-23.49 20.71,-24.65 45.33,-37.77 19.77,-10.53 35.87,-20.02 54.98,-31.54 35.48,-21.38 68.03,-45.82 101.47,-62.72 43.77,-141.81 76.27,-351.25 107.58,-506.56l95.18 -444.74c11.93,-54.12 9.5,-41.85 23.8,-49.88 15.7,178.04 -35.47,540.78 -72.01,731.29 -5.81,30.3 -51.73,180.37 -37.15,206.37 3.34,-26.51 4.08,-23.19 21.72,-37.2 2.49,-1.96 11.53,-9.28 16.96,-11.69 16.89,-7.49 6.98,-13.24 17.8,0.89l22.99 -59.91c7.45,-19.69 15.6,-37.65 23.19,-56.18 107.68,-262.92 150.03,-470.92 237.3,-706.28 12.09,-32.6 26.31,-87.31 47.94,-105 11.07,17.89 5.07,31.96 -2.22,55.72 -5.72,18.69 -11.17,37.43 -16.73,55.62 -11.79,38.57 -21.53,73.56 -32.31,111.86 -30.6,108.8 -178.83,588.59 -213.06,631.84 34.11,-15.02 101.25,-74.12 131.17,-101.11 24.94,-22.49 38.39,-34.44 61.17,-54.08 26.4,-22.76 33.77,-39.55 62.96,-58.46l59.44 -84.95c16.61,12.07 0.48,-10.63 13.01,9.83 16.51,-9.2 20.39,-15.07 33.49,-28.75 5.19,-5.42 8.93,-10.05 14.1,-14.79 12.96,-11.88 4.78,-7.13 18.57,-13.27l77.94 -228.39c72.14,-230.47 132.97,-422.46 190.72,-659.19 1.81,-7.4 4.7,-22.86 7.2,-29.25 11.81,-30.08 -5,-12.43 19.54,-21.83 25.35,21.93 10.16,100.65 6.89,141.78 -8.26,104.17 -40.14,345.83 -73.78,426.68 40.77,-17.5 55.2,-10.28 72.01,23.36 34.24,-36.75 135.76,-441.86 173.7,-483.18 10.75,55.29 -44.29,263.36 -56.37,330.79 35.2,-31.79 92.43,-121.14 128.14,-169.03 24.97,-33.49 100.47,-154.43 123.99,-169.45l32.9 -235.5c38.93,-281.36 39.13,-474.88 39.13,-758.74 -90.12,33.14 -167.83,105.7 -216.12,171.13 -141.61,191.87 -89.74,390.5 -281.82,481.77 -119.44,56.76 -206.72,22.79 -324.89,-2 -38.51,127.44 -165.08,232.03 -294.84,275.58 -153.55,51.54 -336.16,52.16 -508.28,27.3 -230.78,-33.33 -452.84,-100.21 -659.61,-189.63 -223.45,-96.64 -193.81,-19.41 -444.62,33.66 -239.16,50.59 -516.88,64.13 -734.42,-21.66 -70.04,-27.62 -128.04,-64.22 -183.56,-104.43l-148.4 -132.42c-59.06,-63.76 -185,-243.2 -215.14,-347.6 -171.59,35.3 -710.38,128.56 -834.6,-72.68 -26.6,-43.08 -17.48,-65.49 -26.08,-117.53 -241.01,-42.49 -302.62,-252.01 -350.03,-299.37 -4.1,51.76 -54.25,281.21 -64.63,404.45 -5.66,67.12 -18.58,142.28 -21.74,208.77 -3.51,73.83 -9.27,155.26 -14.47,225.32z"/> <path class="fil1" d="M237.67 4660.54c-8.93,64.93 104.22,222.55 198.85,276.86 88.78,50.96 202.94,52.12 300.45,181.82 83.4,110.93 77.01,221.37 278.9,207.34 272.36,-18.93 425.49,-141.38 572.73,43.17 181.52,227.53 717.08,479.37 1036.71,367.84 152.47,-53.2 268.28,-185.04 552.71,-19.3 230.19,134.14 462.97,218.5 747.79,219.82 166.71,0.77 271.03,-37.4 357.47,-127.72 93.42,-97.62 79.45,-239.82 260.97,-204.95 68.49,13.16 136.46,34.01 195.64,-0.81 139.48,-82.09 313.32,-458.76 540,-554.79 18.22,-7.72 76.23,-18.62 86.63,-29.12 19.79,-51.25 -72.44,-351.34 -94.63,-416.85 -10.86,-32.11 -18.66,-63.21 -31.99,-97.67 -64.79,-167.47 -134.54,-323.95 -256.91,-456.22 -11.49,-12.42 -20.32,-20.15 -32.5,-32.33 -12.18,-12.18 -19.91,-21 -32.33,-32.5 -77.55,-71.76 -215,-158.94 -315.41,-203.33 -15.76,-6.97 -28.58,-10.36 -43.04,-18.97 -22.78,14.64 -140.93,193.73 -164.83,228.8 -48.94,71.84 -122.16,162.23 -160.6,237.98 91.81,31.06 160.49,51.68 214.44,109.84 63.9,68.88 63.39,159.29 14.37,245.99 -103.22,182.56 -314.68,268.74 -341.34,301.1l48.37 -1.9c-59.32,42.05 -269.29,113.65 -355.26,140.41 -136.39,42.46 -257.57,65.29 -407.01,83.16 -310.45,37.12 -606.2,21.48 -904.84,-40.08 -385.72,-79.51 -722.31,-222.41 -1042.19,-442.12 -69.12,-47.47 -226.23,-171.03 -263.79,-224.6 -97.34,-74.58 -97.34,-57.74 -195.71,-181.17 -100.63,-231.01 189,-269.6 376.61,-298.22 106.89,-16.3 216.14,-27.76 324.51,-35.59 57.94,-4.19 119.44,-5.5 177.65,-6.61 37.11,-0.72 152.28,5.32 174.52,-7.86l-57.92 -263.1c-171.1,0 -463.25,42.49 -630.09,69.98 -203.89,33.6 -384.67,83.51 -554.67,151.25 -240.78,95.94 -478.02,265.28 -526.9,531.99 -8.86,48.32 -8.11,111.79 -19.79,153.1 -8.82,31.16 -39.69,112.77 -27.54,145.37z"/> <path class="fil2" d="M3735.45 8157.22c-1.36,-21.32 70.49,-94.31 103.87,-139.92 18.62,-25.44 34.41,-50.32 49.36,-80.25 8.85,-17.69 12.32,-26.03 18.56,-46.09 1.19,-3.81 5.2,-18.05 7.26,-22.4 11.29,-23.85 1.02,-7.6 13.99,-19.8 0.04,172.5 -161.72,310.82 -193.03,308.46zm-848.44 508.37l-270.99 0c-391.68,-19.45 -771.17,-121.08 -1119.8,-271.65l-242.89 -117.27c-27.26,-13.45 -52.13,-28.36 -78.83,-43.63 -462.79,-264.73 -779.24,-706.87 -946.72,-1207.07 -65.43,-195.41 -102.78,-386.44 -128.27,-592.07l-27.48 -683.56c31.82,27.97 118.76,270.75 159.63,310.47l25.54 206.37c2.44,33.01 -3.06,55.28 16.2,69.2 17.65,-27.9 7.42,-94.73 5.85,-134.36l-0.57 -31.4c14.08,12.46 1.31,-12.04 12.85,18.24 10,29.17 9.76,373.3 15.29,446.07l34.14 313.53c5.9,42.45 -1.7,75.68 40.81,74.12 27.02,-47.18 -6.29,-519.48 -2.01,-633.77 1.22,-32.82 3.69,-28.3 9.57,-35.42 30.31,56.11 71.68,123.26 106.8,173.77 20.23,29.11 37.61,55.78 54.81,82.09 30.76,47.08 42.68,39.12 41.23,111.4 -2.04,127.86 -7.09,240.93 12.12,367.87 9.15,60.44 47.95,272.83 108.84,288.4 15.6,-10.68 8.54,-4.24 16.42,-18.93l6.56 -15.66c0.68,-1.57 1.85,-4.23 2.41,-5.53 0.56,-1.31 1.36,-3.88 2.5,-5.57 3.46,9.04 6.75,19.26 11.39,27.2l18.34 21.2c12.87,-34 -35.33,-79.08 -36.81,-154.36 -1.3,-66.5 -1.55,-143.4 0.88,-209.6l-1.57 -153.39 63.5 76.33c5.81,33.24 -87.76,391.95 150.7,707.43 14.14,18.71 14.53,23.84 40.45,26.05 4.57,-28.82 -110.52,-329.53 -134.03,-481.02 -4.48,-28.86 -7.53,-58.75 -8.87,-88.68l1.05 -77.24c5.48,-18.38 -6.6,-7.55 10.81,-15.57l14.09 6.05c19.76,39.48 79.81,66.14 84.55,115.14 4.68,48.47 -18.07,156.48 5.48,191.18 -12.29,84.74 41.44,347.83 98.19,457.09 2.69,5.18 12.86,24.71 15.02,27.98 2.44,3.66 6.92,9.59 10,12.7 10.84,10.9 -0.75,1.63 13.99,10.92 -20.63,-63.62 -53.85,-108.16 -67.91,-183.61 6.31,8.4 -1.41,-2.6 9.5,14.22 18.78,28.92 15.61,28.31 43.03,31.27 27.28,-41.53 56.41,-184.09 45.58,-245.77l4.42 11.2c2.5,9.29 2.43,9.74 4.41,19.26l9.96 37.02c-18.74,105.69 137.79,416.27 188.86,470.52l17.66 -3.95c10.9,4.33 11.84,2.42 25.56,9.78l-68.41 -289.88c-3.44,-17.07 -5.74,-31.59 -9.41,-48.79 -7.16,-33.53 -1.46,-30.65 -27.76,-36.96 -9.1,26.37 7.27,80.52 12.42,117.97l-4.35 41.24c-14.93,-59.04 -45.22,-126.98 -64.23,-189.24 -17.17,-56.23 -38.27,-152.66 -58.35,-200.05 -25.39,5.54 -8.58,-0.12 -11.67,12.18 -18.18,-22.22 -11.57,-74.24 -8.11,-104.99l100.08 82.64c11.61,18.08 12.48,39.66 18.69,66.31 34.85,-12.29 2.8,4.76 26.23,-28.01 12.48,15.09 46.07,257.7 56.99,307.12 11.08,50.12 24.05,93.25 38.95,141.44 18.86,60.99 16.78,106.27 84.27,79.87 27.86,-125.41 14.35,-252.18 21.21,-381.66 73.38,45.46 174.21,112.54 262.59,150.73 14.39,77.9 48.28,354.93 129.44,348.43 3.46,17.81 6.39,35.43 9.76,51.65 7.83,37.69 1.21,32.25 28.49,35.46 15.94,-23.65 -35.06,-333.91 -44.21,-374.95l81.32 30.13c9.5,49.14 19.75,121.73 41.65,157.3 16.52,1.82 11.78,5.09 26.22,-1.81 15.8,-7.55 7.58,0.72 13.3,-15.96 17.13,-17.24 6.67,-73.08 11.41,-101.42 1.27,1.51 3.04,2.01 3.45,4.82 0.39,2.74 2.58,3.74 3.06,4.89 0.45,1.09 1.98,3.56 2.45,4.94 3.72,11.05 2.87,10.12 2.67,21.35 -0.24,13.97 -2.77,32.82 -3.32,48.1 -3.36,92.72 5.8,194.03 25.3,284.16 17.53,80.98 42.1,158.65 78.28,231.1 16.45,32.93 19.16,48.95 56.67,41.99 14.97,-63.78 -46.91,-261.83 -24.33,-300.06 5.98,36.24 20.77,116.84 57.42,122.49 33.3,-32.82 -26.88,-256.17 -64.83,-283.08l-12.64 11.44c-19.34,-34.61 -13.01,-112.68 -13.24,-158.42l142.21 37.47c3.45,44.3 -12.51,138.64 13.32,171.93 22.14,-9.56 18.32,-13.4 21.59,-43.76 2.58,-23.91 4.54,-40.17 -0.47,-61.7 9.18,-20.96 6.48,-27.01 6.56,-55.18l112.26 21.5c-2.49,14.48 -5.63,30.83 -4.11,46.2 3.68,36.96 2.12,24.24 26.22,28.46l7.29 -71.95c39.37,19.36 26.43,286.76 64.8,381.98 44.42,-1.67 37.92,-17.46 38.64,-65.42 2.21,-147.58 -18.15,-181.55 -27.2,-299.72 22.09,-8.14 145.12,2.08 173.43,11.24l-0.2 50.38 3.96 29.59c0.33,0.93 1.24,3.14 2.23,4.48 12.45,-19.45 18.75,-62.28 14.44,-85.09 48.16,-4.68 14.72,-4.23 26.64,7.84l-4.6 53.74 0.32 61.34c34.72,-7.39 27.39,-10.22 31.13,-52.93 1.9,-21.65 3.85,-51.03 10.3,-67.47l75.17 -5.09c-7.86,75.96 -31.06,173.49 -4.81,241.47 40.99,0.15 51.08,-35.72 78.24,-105.06 17.41,-44.46 30.38,-90.46 42.34,-140.42l34.31 -14.07c62.11,-1.81 20.96,-9.45 37.08,14.04l-66.16 209.73c-29.17,91.02 -18.01,59.69 -4.61,72.05l72.13 -178.84 1.13 102.11c0.49,1.4 1.55,3.8 2.7,5.46 24.96,-14.25 23.26,-60.56 27.97,-110.94 3.79,-40.59 2.71,-85.52 9.45,-124.95l237.17 -52.88c26.26,-5.9 6.01,-3.3 13.41,6.26 -20.68,84.58 -95.13,279.18 -96.2,290.51 33.48,-1.33 31.54,-1.57 65.34,-54.84 59.61,-93.93 67.99,-169.88 95.87,-271.49 17.06,-4.61 28.06,-9.28 43.76,-15.09 25.63,-9.49 25.92,-17.01 34.17,-2.59 -90.85,141.87 -41.43,150.28 -9.01,123.34l93.69 -94.39c30.06,-27.61 81.88,-112.02 117.39,-127.49 7.9,136.61 -138.84,352.56 -99.99,393.5 35.11,-15.07 16.14,-31.26 52.24,-48.5l25.45 0.99c32.97,-58.89 63.55,-102.64 93.31,-174.29 12.61,-30.35 25.75,-69.14 34.06,-103.18 13.88,-56.84 29.61,-100.64 -4.52,-108.25 10.31,-23.49 20.71,-24.65 45.33,-37.77 19.77,-10.53 35.87,-20.02 54.98,-31.54 35.48,-21.38 68.03,-45.82 101.47,-62.72 -6.47,63.07 -59.71,227.19 -53.63,270.43 19.18,4.4 5.65,3.3 23.19,0.44l21.28 -6.75c8.32,-4.05 15.41,3.88 29.55,-39.97l97.01 -287.66c3.34,-26.51 4.08,-23.19 21.72,-37.2 2.49,-1.96 11.53,-9.28 16.96,-11.69 16.89,-7.49 6.98,-13.24 17.8,0.89 -26.01,47.44 -167.77,387.76 -159.94,420.18 38.93,-13.65 105.1,-191.49 125.34,-235.93 24.48,-53.76 95.12,-209.98 101.7,-256.6 34.11,-15.02 101.25,-74.12 131.17,-101.11 24.94,-22.49 38.39,-34.44 61.17,-54.08 26.4,-22.76 33.77,-39.55 62.96,-58.46 -3.11,24.89 -87.8,195.09 -106.4,245.64 -19.9,54.07 -80.79,228.58 -71.07,286.49 27.25,-12.33 166.37,-462.52 249.91,-607.24 16.51,-9.2 20.39,-15.07 33.49,-28.75 5.19,-5.42 8.93,-10.05 14.1,-14.79 12.96,-11.88 4.78,-7.13 18.57,-13.27 -41.54,165.02 -214.9,513.05 -296.72,700.54 -16.38,37.54 -32.67,78.87 -48,117.74 -13.47,34.14 -50.36,95.97 -32.3,131.08 22.53,0.75 27.17,-16.97 39.82,-37.04 160.2,-254.09 359.7,-608.87 445.44,-887.36l1.51 22.93c-9.94,61.6 -128.87,423.51 -128.9,423.67 -6.87,28.82 -55.48,129.28 -71.16,161.82 -27.57,57.2 -52.07,108.69 -79.07,165.37l-162.6 328.18c-354.65,253.11 -762.31,413.08 -1202.66,475.02 -77.42,10.89 -154.68,18.13 -231.63,22zm-1284.4 -766.45c-8.07,-3.77 -6.47,-10.35 -7.75,-17.09 18.14,-25.74 30.06,-3.99 30.89,-3.66l-3.14 17.25c-1.11,0.58 7.85,16.5 -20,3.5z"/> <path class="fil3" d="M172.88 4911.79c47.41,47.36 109.02,256.88 350.03,299.37 8.6,52.04 -0.52,74.45 26.08,117.53 124.22,201.24 663.01,107.98 834.6,72.68 30.14,104.39 156.08,283.84 215.14,347.6l148.4 132.42c55.52,40.22 113.53,76.82 183.56,104.43 217.55,85.79 495.27,72.25 734.42,21.66 250.81,-53.06 221.17,-130.3 444.62,-33.66 206.78,89.43 428.83,156.3 659.61,189.63 172.12,24.86 354.73,24.24 508.28,-27.3 129.76,-43.55 256.33,-148.14 294.84,-275.58 118.17,24.79 205.45,58.76 324.89,2 192.07,-91.27 140.21,-289.9 281.82,-481.77 48.29,-65.43 125.99,-137.99 216.12,-171.13l-15.32 -166.8c-8.4,-25.46 9.98,-6.65 -13.45,-22.18 -10.4,10.5 -68.41,21.4 -86.63,29.12 -226.68,96.03 -400.52,472.7 -540,554.79 -59.18,34.82 -127.15,13.98 -195.64,0.81 -181.52,-34.87 -167.55,107.33 -260.97,204.95 -86.44,90.32 -190.76,128.49 -357.47,127.72 -284.82,-1.32 -517.59,-85.67 -747.79,-219.82 -284.44,-165.75 -400.24,-33.9 -552.71,19.3 -319.63,111.53 -855.19,-140.3 -1036.71,-367.84 -147.24,-184.55 -300.37,-62.1 -572.73,-43.17 -201.89,14.03 -195.51,-96.41 -278.9,-207.34 -97.51,-129.7 -211.67,-130.87 -300.45,-181.82 -94.62,-54.31 -207.77,-211.93 -198.85,-276.86 -22.9,18.09 -27.02,67.99 -38.86,119.58 -8.71,37.96 -22.88,96.84 -25.94,131.66z"/> <path class="fil4" d="M4236.89 3666.49c-13.4,29.36 -60.7,91.69 -81.65,121.44 -30.77,43.69 -53.75,78.89 -82.06,119.64 -54.73,78.81 -105.55,161.76 -161.4,236.65 -50.76,86.47 -115.86,174.88 -170.55,259.69 -29.07,45.06 -56.33,84.72 -85.4,130.63 -17.16,27.11 -62.4,104.38 -82.5,124.03 -13.25,32.4 -56.05,94.1 -77.77,126.34 -19.79,29.36 -62.71,92.66 -73.96,122.59l189.32 0.28c31.05,-78.74 1421.32,-1980.32 1503.05,-2084.41l202.8 -251.54c12.69,-11.6 19.21,-12.04 24.73,-29.07l-40.08 -158.44 -221.28 210.69c-128.42,128.4 -292.68,337.67 -406.14,479.88 -159.8,200.3 -288.01,388.57 -437.12,591.62zm1650.95 -1187.9c456.49,23.4 876.41,112.48 1315.47,177.56l0 -6.94c-0.16,-143.13 -7.1,-115.71 -247.94,-161.03l-865.54 -157.33c-31.51,-5.96 -158.25,-22.82 -170.81,-32.99l-31.18 180.73zm-163.81 -79.92l-3.44 74.36c27.97,0.15 63.01,5.83 86.26,-4.8l40.25 -177.57c-33.48,-0.84 -96.89,-13.98 -125.99,-21.61l2.92 129.62zm-156.02 -144.03l27.86 221.24 55.65 -3.69 20 -210.34c-37.32,0 -81.57,-16.14 -103.51,-7.2zm-219.56 93.64c2.11,12.73 48.99,135.51 58.58,158.03l106.68 -24.55 0.92 -25.46 -6.62 -194.46c-24.02,14.43 -54.92,20.57 -82.71,37.22 -26.36,15.78 -53.85,31.94 -76.84,49.23z"/> <path class="fil5" d="M4121.73 4886.56l-335.86 16.38 -174.95 4.83 -189.32 -0.28 -37.03 -1.31 -336.87 -16.11c-205.51,-26.49 -410.69,-46.17 -607.81,-92.14l-120.37 -26.37 -62.42 -16.9c-113.7,-16.57 -428.49,-118.95 -548.87,-160.15 -87.78,-30.03 -174.09,-60.98 -259.85,-93.07 -78.1,-29.22 -177.35,-78 -251.36,-100.04 37.56,53.57 194.67,177.13 263.79,224.6 319.88,219.71 656.47,362.62 1042.19,442.12 298.64,61.56 594.39,77.21 904.84,40.08 149.43,-17.87 270.62,-40.69 407.01,-83.16 85.97,-26.76 295.94,-98.35 355.26,-140.41l-48.37 1.9z"/> <path class="fil1" d="M2172.93 3594.45l61.02 288.98c223.51,9.52 440.75,28.55 658.45,59.69 105.47,15.09 208.86,31.85 309.96,50 65.87,11.82 255.81,58.2 305.11,55.03l63.08 -109.48c18.94,-36.37 98.7,-187.81 120.89,-204.14 7.17,-47.55 51.61,-91.34 66.74,-140.09 -72.84,0 -128.3,-7.67 -192.46,-7.29 -66.95,0.38 -135.23,1.21 -202.08,0.38 -40.88,-0.51 -49.83,-7.68 -93.11,-7.74l-706.17 0.25c-127.48,-0.16 -264.29,14.41 -391.44,14.41z"/> <path class="fil6" d="M2322.82 4273.22c183.56,5.18 825.97,117.26 943.95,197.13 19.87,-14.13 55.39,-75.86 63.01,-101.38l112.98 -198.29 64.72 -122.52c-49.3,3.17 -239.24,-43.21 -305.11,-55.03 -101.11,-18.15 -204.49,-34.91 -309.96,-50 -217.7,-31.14 -434.94,-50.17 -658.45,-59.69l88.87 389.79z"/> <path class="fil7" d="M2439.88 4797.94c197.12,45.97 402.3,65.65 607.81,92.14l77.94 -150.44 115.12 -209.2c5.9,-11.81 10.37,-18.47 15.27,-28.21 12.56,-24.94 7.89,-7.42 10.75,-31.87 -117.97,-79.86 -760.39,-191.95 -943.95,-197.13l117.06 524.71z"/> <path class="fil8" d="M1197.01 4401.42c74.01,22.03 173.26,70.82 251.36,100.04 85.76,32.09 172.07,63.03 259.85,93.07 120.38,41.2 435.17,143.58 548.87,160.15l-114.5 -499.98c-189.58,-10.38 -374.79,-22.94 -565.27,-27.88 -93.15,-2.42 -187.27,-3.18 -280.73,-3.65 -66.74,-0.34 -242.61,9.15 -295.3,-2.92 98.38,123.43 98.38,106.59 195.71,181.17z"/> <path class="fil6" d="M1001.3 4220.24c52.69,12.07 228.55,2.58 295.3,2.92 93.47,0.47 187.58,1.23 280.73,3.65 190.48,4.94 375.69,17.5 565.27,27.88l-88.01 -382.73c-22.25,13.18 -137.41,7.14 -174.52,7.86 -58.21,1.11 -119.71,2.42 -177.65,6.61 -108.36,7.83 -217.62,19.29 -324.51,35.59 -187.61,28.62 -477.24,67.22 -376.61,298.22z"/> <path class="fil9" d="M3610.92 4907.76l174.95 -4.83c82.6,-115.3 390.5,-612.6 448.39,-673.3 38.45,-75.76 111.67,-166.14 160.6,-237.98 23.9,-35.08 142.05,-214.16 164.83,-228.8 66.64,-123.94 640.19,-862.85 740.2,-969.71l116.99 -127.4c-34.89,-4.97 -39.01,-26.88 -50.44,-53.7 -4.86,-11.39 -19.02,-60.2 -24.95,-69.3 -5.52,17.03 -12.04,17.47 -24.73,29.07l-202.8 251.54c-81.73,104.09 -1472,2005.67 -1503.05,2084.41zm2231.73 -2300.16c60.44,0 1094.79,195.49 1220.85,219.25 38.82,7.32 58.68,17.64 83.61,-8.73 23.34,-24.7 56.2,-114.96 56.2,-161.97 -439.06,-65.08 -858.98,-154.16 -1315.47,-177.56 -3.97,27.34 -9.79,42.62 -18.2,66.94 -2.99,8.64 -7.94,23.51 -11.66,32.28 -10.35,24.43 -2.83,5.75 -15.33,29.8zm-130.47 -21.61c22.64,0.83 16.09,2.7 37.49,5.77 24.54,3.52 22.62,-4.8 34.62,8.64 0.69,-24.54 13.88,-110 22.55,-132.17 -23.25,10.63 -58.29,4.95 -86.26,4.8l3.44 -74.36 -4.64 0.02 -7.21 187.31zm-115.24 -21.61c22.39,9.96 19.8,7.21 51.26,7.21l3.32 -99.41 -55.65 3.69 1.07 88.51zm-189.91 -58.07c22.15,39.51 24.23,92.62 24.23,151.72 14.96,-28.22 63.84,-61.26 91.38,-79.24l-8.01 -122.49 -0.92 25.46 -106.68 24.55z"/> <path class="fil2" d="M5071.12 6542.42c-21.75,66.6 -38.27,143.82 -58.66,213.32 -126.15,430.17 -286.45,786.12 -506.14,1172.14 -32.56,57.22 -76.58,118.9 -104.4,175.86 24.81,-13.93 28.87,-19.63 49.72,-36.02 15.42,-12.1 32.08,-24.43 48.3,-38.14l220.35 -219.05c132.72,-157.83 220.81,-301.41 301.44,-498.13 125.23,-305.51 218.23,-628.63 274.66,-957.1 7.2,-41.87 22.61,-106.06 26.85,-151.37 -23.52,15.02 -99.02,135.96 -123.99,169.45 -35.72,47.89 -92.94,137.25 -128.14,169.03z"/> <path class="fil6" d="M3785.87 4902.94l335.86 -16.38c26.66,-32.36 238.13,-118.54 341.34,-301.1 49.02,-86.7 49.53,-177.11 -14.37,-245.99 -53.95,-58.16 -122.63,-78.77 -214.44,-109.84 -57.89,60.7 -365.79,558 -448.39,673.3z"/> <path class="fil10" d="M1085.04 6011.91c-29.59,259.34 -43.08,268.72 -45.63,557.52l1.62 453.81c-0.09,12.69 -1.46,152.6 -8.24,133.86 -0.36,-1 -1.58,3.99 -2.71,5.79 -18.95,-8.7 -5.39,5.69 -15.83,-14.3l-17.77 -177.39c-10.33,-144.33 -15.22,-285.83 -9.03,-430.6 2.61,-60.99 17.69,-148.77 10.9,-204.38l2.5 -34.08c-36.5,72.52 -26.02,402.12 -28.93,505 -2.4,84.4 -9.56,168.01 -13.35,251.86 -3.3,72.8 22.06,194.26 2.43,262.96 -12.29,84.74 41.44,347.83 98.19,457.09 2.69,5.18 12.86,24.71 15.02,27.98 2.44,3.66 6.92,9.59 10,12.7 10.84,10.9 -0.75,1.63 13.99,10.92 -20.63,-63.62 -53.85,-108.16 -67.91,-183.61 6.31,8.4 -1.41,-2.6 9.5,14.22 18.78,28.92 15.61,28.31 43.03,31.27 27.28,-41.53 56.41,-184.09 45.58,-245.77 -9.65,-38.4 7.29,-153.07 7.08,-200.24 -0.26,-61.26 -7.19,-132.33 -11.09,-194.45 -8.43,-134.24 -7.7,-269.03 -3.75,-403.47 7.76,-264.44 23.75,-443.02 65,-695.04 0.87,-5.34 3.05,-20.55 2.69,-25.28l-6.99 -24.95c-49.81,14.26 -60.97,79.98 -96.31,108.57z"/> <path class="fil11" d="M2319.51 4771.57l120.37 26.37 -117.06 -524.71 -88.87 -389.79 -61.02 -288.98c-6.21,-14.89 -3.18,-14.87 -7.59,-32.95 -0.22,-0.92 -4.59,-16.66 -4.74,-17.08 -5.52,-15.73 -1.42,-6.39 -6.81,-15.22 -18.75,-8.82 -26.41,-19.91 -44.73,-33.95 -38.82,-29.74 -96.74,-69.44 -145.17,-82.14 45.7,249.86 179.95,757.05 255.65,1030.81l99.97 327.66z"/> <path class="fil10" d="M1282.28 7140.12l2.09 272.89c12.48,15.09 46.07,257.7 56.99,307.12 11.08,50.12 24.05,93.25 38.95,141.44 18.86,60.99 16.78,106.27 84.27,79.87 27.86,-125.41 14.35,-252.18 21.21,-381.66 -13.33,-182.87 -29.35,-367.91 -41.61,-551.18 -6.36,-95.17 -9.04,-192 -5.67,-287.59 1.83,-51.68 30.03,-242.98 20.83,-271.12 -65.99,21.91 -144.62,380.35 -158.66,483.93 -8.13,59.95 -2.01,156.89 -18.4,206.3z"/> <path class="fil10" d="M592.17 6720.66c-2.04,127.86 -7.09,240.93 12.12,367.87 9.15,60.44 47.95,272.83 108.84,288.4 15.6,-10.68 8.54,-4.24 16.42,-18.93l6.56 -15.66c0.68,-1.57 1.85,-4.23 2.41,-5.53 0.56,-1.31 1.36,-3.88 2.5,-5.57 3.46,9.04 6.75,19.26 11.39,27.2l18.34 21.2c12.87,-34 -35.33,-79.08 -36.81,-154.36 -1.3,-66.5 -1.55,-143.4 0.88,-209.6 -11.71,-38.4 -12.57,-122.51 -6.4,-165.32 6.91,-47.94 -2.21,-453.6 -1.7,-533.05 0.74,-114.5 3.55,-231.92 11.21,-345.9 5.26,-78.18 32.93,-262.26 27.92,-323.78 -20.77,12.67 -21.35,15.95 -33.6,40.82 -36.17,73.4 -42.81,86.29 -67.61,170.25 -48.95,165.69 -47.6,388.11 -55.13,563.37 -2.08,48.33 -6.01,96.61 -8.94,144.89 -5.33,87.52 9.09,121.68 -8.4,153.69z"/> <path class="fil10" d="M4653.27 7041.63c-41.54,165.02 -214.9,513.05 -296.72,700.54 -16.38,37.54 -32.67,78.87 -48,117.74 -13.47,34.14 -50.36,95.97 -32.3,131.08 22.53,0.75 27.17,-16.97 39.82,-37.04 160.2,-254.09 359.7,-608.87 445.44,-887.36 16.1,-63.47 43.43,-125.87 62.01,-197.71 12.8,-49.5 29.18,-161.04 58.26,-197.43 33.64,-80.86 65.52,-322.52 73.78,-426.68 3.27,-41.13 18.46,-119.85 -6.89,-141.78 -24.54,9.4 -7.73,-8.25 -19.54,21.83 -2.5,6.39 -5.39,21.85 -7.2,29.25 -57.75,236.73 -118.58,428.71 -190.72,659.19l-77.94 228.39z"/> <path class="fil10" d="M3513.97 7841.33c-90.85,141.87 -41.43,150.28 -9.01,123.34l93.69 -94.39c30.06,-27.61 81.88,-112.02 117.39,-127.49l7.71 -27.47c208.23,-266.16 460.2,-873.26 503.03,-1308.99 -27.06,14.11 -6.93,-0.78 -21.12,17.5l-147.61 357.48c-204.47,533.66 -249.09,569.67 -516.43,1010.63 -6.29,10.36 -8.08,13.58 -12.77,22.36l-14.89 27.01z"/> <path class="fil10" d="M1992.91 6815.78l-5.03 401.92c-3.16,57.75 3.7,95.83 -21.38,106.33 -17.58,-24.92 -8.23,-203.17 -6.38,-246.21 -1.02,1.88 -2.11,2.68 -2.47,5.92l-32.3 350.01c-2.14,122.53 5.06,249.11 27.85,367.47 9.5,49.14 19.75,121.73 41.65,157.3 16.52,1.82 11.78,5.09 26.22,-1.81 15.8,-7.55 7.58,0.72 13.3,-15.96 -6.07,-28.45 -4.9,-65.94 1.88,-95.01l75.4 -1254.7c3.41,-50.51 27.47,-159.8 -1.08,-195.68 -32.69,5.51 -19.52,1.62 -40.1,91.12l-59.94 271.5c-4.14,21.98 -6.06,40.61 -17.63,57.79z"/> <path class="fil10" d="M844.85 6929.16c18.68,30.53 -1.73,40.56 12.03,80.43l14.09 6.05c41.23,-2.64 33.81,-30.59 43.69,-115.41 22.28,-191.18 54.34,-755.01 38.71,-929.58 -3.58,-39.95 -3.05,-112.43 -38.55,-130.8 -69.49,33.32 -109.35,447.69 -111.58,506.27 -5.58,146.91 9.3,443.41 41.61,583.03z"/> <path class="fil10" d="M4953.8 6694.81c-11.98,96.9 -246.84,987.99 -329.92,928.1 -1.15,-1.71 -2.29,-6.66 -2.53,-5.63 -0.24,1.01 -1.91,-4.28 -2.15,-5.7 -6.88,-39.08 17.86,-54.14 14.94,-98.38 -6.87,28.82 -55.48,129.28 -71.16,161.82 -27.57,57.2 -52.07,108.69 -79.07,165.37l-162.6 328.18c16.28,7.41 12.4,6.66 36.7,7.2 6.29,-23.56 29.87,-52.86 43.93,-72.03 27.82,-56.96 71.84,-118.64 104.4,-175.86 219.69,-386.03 379.99,-741.97 506.14,-1172.14 20.39,-69.49 36.9,-146.72 58.66,-213.32 12.08,-67.42 67.12,-275.49 56.37,-330.79 -37.94,41.31 -139.45,446.43 -173.7,483.18z"/> <path class="fil12" d="M4018.39 7571.05c-6.47,63.07 -59.71,227.19 -53.63,270.43 19.18,4.4 5.65,3.3 23.19,0.44l21.28 -6.75c8.32,-4.05 15.41,3.88 29.55,-39.97l97.01 -287.66c-14.58,-26 31.34,-176.08 37.15,-206.37 36.54,-190.51 87.71,-553.25 72.01,-731.29 -14.3,8.03 -11.88,-4.24 -23.8,49.88l-95.18 444.74c-31.31,155.3 -63.81,364.75 -107.58,506.56z"/> <path class="fil10" d="M1748.39 7710.51c14.39,77.9 48.28,354.93 129.44,348.43 -15.26,-95.08 -25.29,-194.54 -10.58,-291.39 -16.09,-219.44 -32.44,-499.82 -96.72,-712.39 -6.51,-21.51 3.66,-8.4 -8.86,-32.35 -24.91,8 -10.18,-9.32 -27.36,21.13 -2.42,4.29 -9.8,31.97 -11.49,38.91 -21.59,88.81 -12.42,183.99 -3.56,273.63 11.54,116.56 26.55,236.18 29.12,354.03z"/> <path class="fil12" d="M291.53 6188.86c10,29.17 9.76,373.3 15.29,446.07l34.14 313.53c5.9,42.45 -1.7,75.68 40.81,74.12 27.02,-47.18 -6.29,-519.48 -2.01,-633.77 1.22,-32.82 3.69,-28.3 9.57,-35.42 -15.13,-32.9 -21.75,-437.88 -4.45,-463.57 -8.46,-56.19 1.94,-116.04 3.28,-173.2 2.69,-24.61 12.34,-65.71 0.81,-85.9 -24.55,24.95 -52.43,211.33 -60.02,260.36 -7.66,49.45 -25.06,280.9 -37.42,297.76z"/> <path class="fil12" d="M2045.78 7839.34c1.27,1.51 3.04,2.01 3.45,4.82 0.39,2.74 2.58,3.74 3.06,4.89 0.45,1.09 1.98,3.56 2.45,4.94 3.72,11.05 2.87,10.12 2.67,21.35 -0.24,13.97 -2.77,32.82 -3.32,48.1 -3.36,92.72 5.8,194.03 25.3,284.16 17.53,80.98 42.1,158.65 78.28,231.1 16.45,32.93 19.16,48.95 56.67,41.99 14.97,-63.78 -46.91,-261.83 -24.33,-300.06l-20.05 -149.16c-19.34,-34.61 -13.01,-112.68 -13.24,-158.42 -2.92,-67.88 0.64,-139.91 7.33,-207.08 4.4,-44.12 35.69,-143.23 17.54,-171.79 -47.29,22.59 -93.61,186.93 -107.05,249.68 -14.76,68.93 -3.12,82.26 -28.76,95.49z"/> <path class="fil13" d="M1590.07 1950.87l-77.3 142.32c-15.32,42.27 -36.86,76.63 -56.88,118.84 -133.8,282.02 -246.38,538.18 -345.2,842.48l-39.37 129.03 95.76 -150.98 29.23 -65.94c50.11,-80.27 72.14,-154.08 105.63,-216.66 3.05,-5.68 4.63,-8.76 8.26,-13.72 7.47,-10.23 3.63,-4.93 11.9,-12.07 4.36,-36.42 61.29,-148.92 78.95,-192.31 27.1,-66.58 52.77,-127.57 79.2,-194.4 51.59,-130.45 98.58,-259.32 140.69,-398.88l11.61 -50.39c-7.37,19.13 -26.61,48.46 -42.49,62.7z"/> <path class="fil12" d="M2815.2 7968.87l0.28 7.1 75.17 -5.09c-7.86,75.96 -31.06,173.49 -4.81,241.47 40.99,0.15 51.08,-35.72 78.24,-105.06 17.41,-44.46 30.38,-90.46 42.34,-140.42l34.31 -14.07 -30.4 3.44c11.36,-102.27 31.86,-205.67 42.34,-313.72 5.3,-54.63 10.3,-110.19 17.19,-164.4 8.29,-65.12 9.62,-102.23 -67.97,-93.71 -43.48,49.73 -47.3,205.74 -59.02,284.44 -14.87,99.96 -30.48,195.19 -49.47,295.73l-78.22 4.28z"/> <path class="fil12" d="M4881.79 6671.45c-29.08,36.39 -45.46,147.94 -58.26,197.43 -18.58,71.84 -45.92,134.25 -62.01,197.71l1.51 22.93c-9.94,61.6 -128.87,423.51 -128.9,423.67 2.93,44.25 -21.81,59.3 -14.94,98.38 0.24,1.42 1.91,6.71 2.15,5.7 0.25,-1.02 1.38,3.92 2.53,5.63 83.08,59.89 317.94,-831.2 329.92,-928.1 -16.81,-33.64 -31.24,-40.87 -72.01,-23.36z"/> <path class="fil14" d="M475.88 2933.57c-15.72,30.55 -87.19,81 -76.48,124.62 35.43,4.27 70.02,-38.7 96.59,-54.39l151.13 -130.87c63.59,-54.73 225.16,-226.39 276.57,-292.55 12.11,-15.59 21.04,-22.57 33.79,-38.06l103.4 -117.99 60.23 -73.59c25.65,-43.6 56.26,-72.31 87.83,-111.68 50.38,-62.83 76.28,-70.06 67.57,-116.91 -39.3,-18.25 -41.74,-12.51 -67.18,16.47l-136.46 166.18c-83.98,102.51 -283.11,349.89 -387.17,433.88 -21.55,17.39 -30.74,29.41 -52.14,48.5l-157.7 146.39zm964.01 -934.04c16.29,-7.76 14.54,-8.87 35.24,-13.29 16.24,-12.11 30.88,-16.3 55.15,-24.66 9.63,-3.32 23.14,-8.51 33.52,-10.93 24.43,-5.66 14.64,-6.31 26.27,0.22 15.87,-14.24 35.12,-43.57 42.49,-62.7l-11.61 50.39c46.09,-16.27 99.11,-18.29 151.06,-20.73l4.93 13.75c0.57,1.82 1.49,4.55 2.14,6.71 7.07,23.21 0.18,17.14 9.46,30.45l-3.22 -59.95c-2.58,2.01 -5.36,0.42 4.06,6.33 46.89,-0.36 93.68,-0.28 136.43,3.93 22.6,2.23 45.23,3.34 64.61,6.77 45.69,8.08 17.62,7.52 52.57,21.77 59.54,14.18 165.41,80.57 211.02,113.19 112.87,80.72 305.3,224.22 407.91,319.79l126.64 120.26c15.73,-30.28 62.24,35.15 157.95,14.23 -0.37,-48.53 -21.77,-39.32 -37.74,-75.09l-101.19 -82.87c-74,-56.06 -327.17,-203.95 -340.46,-223.49l-245.68 -149.25c-1.44,-1.12 -3.21,-2.71 -4.52,-3.78l-9.03 -8.35c54.25,7.15 223.57,63.08 270.49,84.8l3.74 3.86c17.91,-32.53 34.67,-33.33 72.22,-48.49 -207.7,-92.65 -405.56,-168.81 -641.4,-236.27 -128.14,-36.65 -250.99,-57.95 -366.11,8.82 -50.52,29.3 -181.08,145.08 -195.45,193.6 -22.36,75.42 79.12,24.21 88.53,20.99zm564.17 786.63c44.64,-78.52 95.73,53.41 22.14,-338.51 -23.97,-127.68 -64.43,-245.33 -158.14,-286.22 30.24,81.43 58.45,215.44 76.53,302.56 11.53,55.52 44.04,294.89 59.48,322.18zm-78.23 -34.76c-15.05,-70.33 -35.04,-138.4 -51.29,-210.6 -11.65,-51.75 -23.36,-177.04 -46.34,-213.9 1.22,41.68 49.58,365.76 81.34,409.49 13.34,18.38 6.63,7.78 16.29,15.01zm-727.74 -74.44c-6.29,34.81 -56.05,105.62 -76.14,145.13 -23.14,45.51 -58.79,113.31 -62.36,168.71l-1.94 42.36c11.68,8.3 19.71,12.58 30.75,22.43l22.29 -1.07c98.82,-304.3 211.39,-560.47 345.2,-842.48 20.02,-42.21 41.56,-76.56 56.88,-118.84 -57.97,-8.8 -55.82,33.95 -92.51,126.81 -36.07,91.31 -168.57,424.35 -222.17,456.96z"/> <path class="fil10" d="M2452.2 7943.29c-2.49,14.48 -5.63,30.83 -4.11,46.2 3.68,36.96 2.12,24.24 26.22,28.46l7.29 -71.95c39.37,19.36 26.43,286.76 64.8,381.98 44.42,-1.67 37.92,-17.46 38.64,-65.42 2.21,-147.58 -18.15,-181.55 -27.2,-299.72 -13,-26.19 -18.31,-87.83 -25.42,-121.78 -16.09,-76.73 -6.21,-82.6 -43.32,-97.49 -0.16,-100.99 27.45,-607.91 53.44,-672.07l4.74 -143.15 -1.59 -11.99c-39.87,158.99 -68.51,308.73 -84.56,479.75 -9.46,100.89 -33.09,468.39 -8.93,547.2z"/> <path class="fil15" d="M1996.66 3608.86l57.92 263.1 88.01 382.73 114.5 499.98 62.42 16.9 -99.97 -327.66c-75.7,-273.76 -209.95,-780.95 -255.65,-1030.81 48.43,12.7 106.35,52.4 145.17,82.14 18.32,14.04 25.98,25.13 44.73,33.95 0,-36.37 -19.58,-105.27 -27.31,-137.94 -8.76,-37.01 -29.47,-105.49 -30.32,-141.76 -35.37,6.66 -36.24,30.19 -91.83,18.84 -25.84,-5.27 -59.73,-17.31 -88.24,-24.61 0,41.51 9.08,59.8 17.26,95.76 7.63,33.5 12.8,57.18 19.34,88.71 11.45,55.22 26.71,127.11 43.98,180.67z"/> <path class="fil1" d="M4019.44 3760.39c-16.38,33.76 -95.76,184.78 -115.19,201.89l-81.13 156.27c6.44,5.03 4.74,4.47 15.5,9.35 9.83,4.46 12.29,4.94 22.09,7.58 18.05,4.85 31.9,7.23 51.07,8.74 55.85,-74.89 106.67,-157.85 161.4,-236.65 28.3,-40.74 51.29,-75.95 82.06,-119.64 20.95,-29.75 68.25,-92.08 81.65,-121.44 -1.7,-0.96 -4.48,-3.82 -5.42,-2.19l-64.94 -15.24c-28.37,-5.71 -45.07,-12.07 -75.05,-10.27 -19.94,16.79 -59.36,93.65 -72.04,121.6z"/> <path class="fil13" d="M1788.54 1968.75c-6.34,114.99 45.17,261.8 39.66,358.15 22.98,36.86 34.69,162.15 46.34,213.9 16.26,72.2 36.24,140.27 51.29,210.6l36.29 129.41 63.27 168.24c1,-54.63 -18.75,-122.89 -6.75,-172.1 -1.07,-1.86 -1.99,-4.33 -2.55,-5.9l-6.18 -18.8c-0.57,-2.31 -2.96,-16.94 -3.36,-19.87 -2.49,-18.27 -2.99,-27.64 -2.49,-46.21 -15.43,-27.29 -47.95,-266.66 -59.48,-322.18 -18.08,-87.12 -46.28,-221.13 -76.53,-302.56l-78.68 -246.3c-9.42,-5.9 -6.64,-4.32 -4.06,-6.33l3.22 59.95z"/> <path class="fil13" d="M2788.54 2500.84l-126.64 -120.26c-102.61,-95.57 -295.04,-239.07 -407.91,-319.79 -45.61,-32.62 -151.48,-99.01 -211.02,-113.19 45.7,62 308.09,284.78 394.58,354.69 68.75,55.58 363.75,279.85 447.21,304.87 -38.36,-59.96 -75.55,-81.01 -96.22,-106.31z"/> <path class="fil10" d="M4192.26 7459.54c-26.01,47.44 -167.77,387.76 -159.94,420.18 38.93,-13.65 105.1,-191.49 125.34,-235.93 24.48,-53.76 95.12,-209.98 101.7,-256.6 34.23,-43.25 182.46,-523.05 213.06,-631.84 10.77,-38.3 20.52,-73.29 32.31,-111.86 5.57,-18.19 11.01,-36.93 16.73,-55.62 7.29,-23.75 13.3,-37.82 2.22,-55.72 -21.63,17.69 -35.85,72.4 -47.94,105 -87.27,235.37 -129.62,443.37 -237.3,706.28 -7.59,18.53 -15.73,36.49 -23.19,56.18l-22.99 59.91z"/> <path class="fil12" d="M998.34 6336.22c6.8,55.61 -8.28,143.38 -10.9,204.38 -6.19,144.77 -1.3,286.27 9.03,430.6l17.77 177.39c10.44,19.99 -3.12,5.61 15.83,14.3 1.13,-1.81 2.36,-6.79 2.71,-5.79 6.78,18.74 8.15,-121.17 8.24,-133.86l-1.62 -453.81c2.55,-288.8 16.04,-298.18 45.63,-557.52 7.02,-30.68 28.38,-88.62 17.07,-110.57 -54.68,59.95 -78.51,403.53 -103.76,434.88z"/> <path class="fil12" d="M796.76 6938.62c5.81,33.24 -87.76,391.95 150.7,707.43 14.14,18.71 14.53,23.84 40.45,26.05 4.57,-28.82 -110.52,-329.53 -134.03,-481.02 -4.48,-28.86 -7.53,-58.75 -8.87,-88.68l1.05 -77.24c5.48,-18.38 -6.6,-7.55 10.81,-15.57 -13.76,-39.88 6.65,-49.9 -12.03,-80.43 -23.85,-2.11 -31.98,1.99 -48.09,9.46z"/> <path class="fil11" d="M1563.12 1692.25c53.01,-29.25 68.56,-47.31 151.27,-22.73 -1,-58.38 -65.8,-325.48 -158.18,-323.1 -78.65,2.03 -62.68,90.63 -57.09,129.79l4.41 25.16c21.28,103.78 48.03,143 59.59,190.88z"/> <path class="fil12" d="M2547.27 6928.34l-4.74 143.15 7.27 160.61c5.8,28.79 4.09,25.51 31.93,29.72 26.94,-147.36 -5.25,-218.22 65.79,-500.85 28.75,-114.45 82.97,-255.32 139.14,-358.64 30.47,-56.04 11.95,-46.22 6.83,-49.89 -33.36,-23.85 -140.35,219.09 -153.19,249.64 -20.83,49.53 -37.53,101.96 -53.06,155.72 -11.61,40.13 -19.83,145.26 -39.97,170.54z"/> <path class="fil10" d="M2773.73 8035.02l0.32 61.34c34.72,-7.39 27.39,-10.22 31.13,-52.93 1.9,-21.65 3.85,-51.03 10.3,-67.47l-0.28 -7.1c19.39,-215.26 67.35,-459.73 115.56,-666.43l128.12 -455.12c12.43,-37.31 51.62,-111.51 36.18,-138.12 -44.99,22.45 -193.46,560.98 -205.99,610.84 -29.1,115.84 -102.7,485.96 -107,613.24 -1.7,50.32 18.73,54.49 -8.34,101.74z"/> <path class="fil16" d="M3047.69 4890.07l336.87 16.11 37.92 -78.43c-27.45,-9.35 -62.36,-36.67 -83.39,-48.75l-1.93 -25.83 -211.52 -13.54 -77.94 150.44zm2541.89 -4573.13l40.85 3.12 161.04 -300.66c-13.21,-14.31 -13.49,-14.15 -36.01,-19.4l-161.25 292.83c-11.26,28.91 -5.48,6.45 -4.62,24.11zm-244.72 427.38l62.62 3.78c14.82,-35.83 38.8,-77.57 56,-111.09 16.76,-32.68 55.79,-82.19 51.35,-117.64l-47.52 -2.91c-10.39,23.17 -16.91,36.63 -30.2,58.43 -12.2,20 -17.97,35.03 -30.47,55.96 -21.63,36.25 -45.49,76.66 -61.78,113.47zm-237.71 428.28l59.87 -1.37c38.4,-10.15 53.13,-69.75 71.38,-103.8 21.48,-40.08 45.24,-79.06 59.74,-116.47l-58.3 -12.22c-1.13,-2.47 -4.12,-1.28 -6.01,-2.31 -21.46,37.66 -40.31,77.1 -62.18,114.92 -12.18,21.07 -20.38,35.08 -33.2,60.45 -12.94,25.62 -24.65,35.19 -31.3,60.8zm-237.71 424.3l74.18 4.17c28.83,-4.32 29.04,-24.24 42.51,-51.24 10.45,-20.94 19.17,-36.05 30.01,-56.03 22.2,-40.94 38.59,-76.72 59.62,-115.38l-76.66 -9.03c-18.5,12.24 -22.04,28.22 -33.62,52.07 -12.73,26.22 -20.26,36.4 -33.53,60.12 -21.87,39.15 -39.81,80.3 -62.51,115.33zm-237.71 424.89l101.92 9.43 3.56 0.54 118.33 -231.32 -94.15 -6.12 -129.66 227.47zm-237.72 425.39l121.91 7.14c22.59,-46.47 108.15,-185.73 109.16,-228.6l-101.39 -6.28c-21.27,37.45 -44.24,76.41 -64.84,114.43 -20.11,37.11 -42.62,78.05 -64.83,113.31zm-230.5 426.2l130.96 9.71 110.82 -225.73c-37.67,-10.98 -87.09,-5.04 -119.32,-15.59 -10.87,23.69 -18.74,32.11 -31.3,56.98 -11.97,23.72 -17.27,33.88 -30.48,55.96 -11.63,19.42 -56.88,103.22 -60.67,118.68zm-237.71 424.79c43.4,4.43 86.81,11.9 129.89,6.53 38.21,-11.54 52.45,-67.87 70.09,-100.8 20.15,-37.63 45.12,-82.16 60.44,-122.11l-130.76 -10.45c-18.21,15.18 -23.26,29.45 -33.61,50.09l-96.05 176.74zm-167.61 296.28c-15.13,48.75 -59.57,92.54 -66.74,140.09 25.94,15.57 76.44,12.85 107.58,8.14l47.86 6.83 121.07 -241.19 -147.17 -14.71 -62.59 100.85zm-250.72 453.71l-64.72 122.52 175.17 14.12 3.29 0.66c17.99,-44.03 114.17,-208.19 110.76,-235.29l-161.42 -11.49 -63.08 109.48zm-240.7 422.19c-2.86,24.45 1.81,6.93 -10.75,31.87 -4.91,9.74 -9.37,16.4 -15.27,28.21 24.04,17.96 66.05,13.77 94.47,15.65 35.27,2.34 64.21,6.09 100.98,6.85 14.22,-47.49 73.57,-132.64 77.69,-172.8l-184.1 -11.16c-7.62,25.52 -43.14,87.25 -63.01,101.38z"/> <path class="fil17" d="M3125.63 4739.63l211.52 13.54 8.17 -0.4c-0.71,-38.86 64.65,-150.3 83.51,-191.97l30.35 -1.46 -23 -6.4c-36.77,-0.76 -65.7,-4.51 -100.98,-6.85 -28.41,-1.88 -70.42,2.31 -94.47,-15.65l-115.12 209.2zm2341.68 -4223.18l47.52 2.91 14.19 -0.45 96.77 -190.76 68.7 4.6 -64.06 -12.69 -40.85 -3.12c-33.97,21.56 -98.46,162.63 -122.27,199.51zm-233.48 419.98c1.89,1.02 4.88,-0.16 6.01,2.31l58.3 12.22 24.11 0.65c-27.57,-13.49 -3.49,-3.24 -14.84,-15.17l94.34 -180.43 37.64 0.21 -31.91 -8.12 -62.62 -3.78c-16.36,19.21 -41.51,66.68 -55.21,93.69 -10.96,21.62 -15.39,25.99 -26.31,45.7 -11.83,21.35 -14.45,33.29 -29.5,52.73zm-234.73 432.95l76.66 9.03 5.92 -0.72 95.63 -199.53 -10.3 -6.94 -59.87 1.37c-22.51,29.9 -39.23,64.29 -57.26,95.56 -15.71,27.25 -43.88,70.03 -50.79,101.22zm-237.71 424.94l94.15 6.12 99.63 -194.76 -11.55 -4.61 -74.18 -4.17c-36.73,65.86 -73.85,129.05 -108.05,197.42zm-237.71 425.12l101.39 6.28 10.58 4.29 98 -198.79 -101.92 -9.43c-13.27,29.91 -36.45,68.63 -54.59,99.02 -19.38,32.47 -37.68,66.77 -53.46,98.63zm-237.72 422.32c32.24,10.56 81.65,4.61 119.32,15.59l34.91 2.72c-2.95,-2 -10.48,-5.72 -11.14,-6.18 -9.99,-6.97 -7.14,-4.54 -12.9,-10.3l93.7 -181.29 55.47 1.98 -49.41 -9.98 -121.91 -7.14c-15.81,34.68 -34.33,64.59 -54.58,98.62 -20.02,33.63 -34,64.79 -53.47,95.96zm-230.5 429.58l130.76 10.45 10.13 -0.39c-0.66,-28.21 72.54,-156.37 90.56,-189.55l32.81 -2.31 -25.24 -6.47 -130.96 -9.71c-22.73,28.1 -39.14,63.3 -57.3,94.71 -9.41,16.28 -14.17,29.21 -25,47.01 -14.18,23.33 -19.89,26.5 -25.75,56.25zm-234.68 422.26l147.17 14.71 98.64 -198.05 -10.9 -5.56c-43.07,5.37 -86.49,-2.1 -129.89,-6.53 -19.75,24.88 -38.25,66.09 -55.33,96.88 -10.35,18.64 -15.38,25.91 -26.42,45.65 -11.77,21.03 -22.51,29.03 -23.26,52.91zm-250.23 445.07l161.42 11.49 11.17 0.46 96.39 -196.72c-23.42,-2.77 -25.7,0.4 -40.5,-11.24 -31.14,4.71 -81.64,7.44 -107.58,-8.14 -22.19,16.33 -101.95,167.77 -120.89,204.14zm-240.78 430.29l184.1 11.16 8.87 0.39 95.17 -195.73 -175.17 -14.12 -112.98 198.29z"/> <path class="fil10" d="M3077.82 7966.83l-66.16 209.73c-29.17,91.02 -18.01,59.69 -4.61,72.05l72.13 -178.84 1.13 102.11c0.49,1.4 1.55,3.8 2.7,5.46 24.96,-14.25 23.26,-60.56 27.97,-110.94 3.79,-40.59 2.71,-85.52 9.45,-124.95 2.03,-33.67 162.16,-559.98 185.49,-638.01 11.48,-38.38 69.26,-178.88 50.82,-208.47 -34.52,3.2 -26.48,19.5 -49.79,95.08 -11.62,37.7 -21.99,72.24 -33.92,110.14 -31.98,101.66 -141.76,514.71 -178.38,577.2 -18.5,31.56 -4.67,26.85 -10.59,68.16l-3.78 14.25c-0.33,-0.94 -1.24,4.87 -2.46,7.03z"/> <path class="fil6" d="M3781.73 4193.48c-41.49,70.28 -78.61,145.16 -119.24,212.48l-89.2 161.72 -35.64 60.88c23.55,10.94 21.07,14.12 35.67,29.99 20.11,-19.65 65.34,-96.92 82.5,-124.03 29.07,-45.91 56.33,-85.56 85.4,-130.63 54.69,-84.81 119.79,-173.22 170.55,-259.69 -19.18,-1.5 -33.03,-3.89 -51.07,-8.74 -9.81,-2.64 -12.27,-3.12 -22.09,-7.58 -10.76,-4.87 -9.05,-4.32 -15.5,-9.35l-41.38 74.93z"/> <path class="fil10" d="M1595.06 6634.26l43.22 520.39c33.49,-7.38 27.64,3.67 27.63,-95.39 -0.02,-190.83 -24.52,-390.02 -6.64,-575.78 4.28,-44.48 39.7,-169.15 26.31,-195.95 -21.29,5.79 -17.35,-4.1 -43.54,65.85 -33.06,88.3 -46.96,186.06 -46.96,280.88z"/> <path class="fil10" d="M1246.18 6764.68c17.32,-21.8 11.86,-27.11 12.91,-74.86l12.79 -444.54c0.13,-89.06 6.02,-157.96 -11.29,-183.06 -92.36,119.98 -67.14,496.92 -36.86,665.93 5.45,30.45 2.33,27.64 22.45,36.54z"/> <path class="fil10" d="M3764.65 6593.79c-14.87,25.61 -0.13,61.79 2.06,90.68 6.91,91.48 -15.48,182.92 -42.98,267.17l-78 231.43c-9.27,29.78 -24.45,64.46 -8.06,85.92 27.17,-10.17 18.82,-13.44 41.29,-68.11 71.14,-173.04 173.5,-342.2 129.37,-541.87 -8.25,-37.28 -10.77,-67.27 -43.69,-65.21z"/> <path class="fil18" d="M5508.01 2261.84l6.62 194.46 8.01 122.49 5.33 10.41c16.46,46.3 2.71,78.5 47.4,90.44l21.58 -115.26 -1.07 -88.51 -27.86 -221.24c-4.37,-19.59 -8.9,-37.84 -14.77,-57.11 -8.61,-28.26 -5.83,-35.81 -35.5,-43.73 -13.3,27.71 -4.39,68.76 -9.73,108.05z"/> <path class="fil10" d="M1147.48 7397.05c-0.08,23.16 -5.28,34.26 -5.31,58.36 -0.03,23.96 5.08,35.42 5.01,58.84 -18.74,105.69 137.79,416.27 188.86,470.52l17.66 -3.95c-0.94,-15.9 -61.19,-182.66 -71.96,-206.64 -14.93,-59.04 -45.22,-126.98 -64.23,-189.24 -17.17,-56.23 -38.27,-152.66 -58.35,-200.05 -25.39,5.54 -8.58,-0.12 -11.67,12.18z"/> <path class="fil12" d="M3357.61 7888.57c26.26,-5.9 6.01,-3.3 13.41,6.26 -20.68,84.58 -95.13,279.18 -96.2,290.51 33.48,-1.33 31.54,-1.57 65.34,-54.84 59.61,-93.93 67.99,-169.88 95.87,-271.49 5.52,-59.19 64.48,-260.97 53.69,-289.32 -34.1,0.86 -24.53,-8.63 -37.67,24.46 -4.1,10.31 -9.72,31.52 -13.61,43.93 -18.58,59.3 -43.04,214.03 -80.84,250.49z"/> <path class="fil19" d="M1475.13 1986.24c-2.26,30.57 -53.62,125.8 -70.17,168.05 -23.13,59.08 -45.59,116.93 -69.11,175.77 -45.32,113.33 -87.21,238.29 -137.76,346.89 53.6,-32.6 186.1,-365.65 222.17,-456.96 36.68,-92.85 34.54,-135.6 92.51,-126.81l77.3 -142.32c-11.63,-6.53 -1.85,-5.88 -26.27,-0.22 -10.39,2.42 -23.89,7.62 -33.52,10.93 -24.26,8.36 -38.91,12.55 -55.15,24.66zm991.97 147.38c-8.79,-35.32 1.33,-51.23 11.26,-76.59 -46.92,-21.71 -216.24,-77.65 -270.49,-84.8l9.03 8.35c1.3,1.07 3.07,2.66 4.52,3.78l245.68 149.25zm841.01 152.04l2.96 6.86c48.17,4.89 99.25,39.59 97.95,91.55 -1.22,49 -56,83.6 -84.96,104.54 -104.08,75.24 -149.86,83.16 -279.11,28.17l-11.73 -10.79 -124.47 -66.03c15.97,35.76 37.38,26.56 37.74,75.09 -95.7,20.93 -142.22,-44.5 -157.95,-14.23 20.67,25.3 57.86,46.35 96.22,106.31 -83.46,-25.02 -378.47,-249.29 -447.21,-304.87 -86.48,-69.91 -348.88,-292.7 -394.58,-354.69 -34.95,-14.25 -6.88,-13.69 -52.57,-21.77 -19.38,-3.43 -42.01,-4.54 -64.61,-6.77 -42.74,-4.21 -89.54,-4.29 -136.43,-3.93l78.68 246.3c93.71,40.89 134.18,158.55 158.14,286.22 73.59,391.92 22.5,259.99 -22.14,338.51 -0.51,18.57 -0.01,27.95 2.49,46.21 0.4,2.93 2.79,17.56 3.36,19.87l6.18 18.8c0.55,1.57 1.47,4.05 2.55,5.9 -11.99,49.21 7.76,117.47 6.75,172.1l-63.27 -168.24 -36.29 -129.41c-9.67,-7.23 -2.95,3.37 -16.29,-15.01 -31.77,-43.73 -80.12,-367.81 -81.34,-409.49 5.51,-96.36 -46,-243.17 -39.66,-358.15 -9.27,-13.31 -2.39,-7.24 -9.46,-30.45 -0.66,-2.16 -1.58,-4.89 -2.14,-6.71l-4.93 -13.75c-51.95,2.44 -104.97,4.46 -151.06,20.73 -42.11,139.56 -89.1,268.43 -140.69,398.88 -26.42,66.83 -52.09,127.81 -79.2,194.4 -17.66,43.39 -74.59,155.89 -78.95,192.31 -22.5,66.87 -78.22,214.72 -125.8,242.46l-29.23 65.94 -95.76 150.98 39.37 -129.03 -22.29 1.07 -64.97 4.84 -18.04 15.61c-16.15,32.97 -101.79,83.16 -162.52,87.22 -82.77,5.54 -143.22,-34.91 -165.59,-85.08 -11.92,0 -8.02,2.52 -7.97,-11.09 -9.53,-46.16 -5.69,-59.21 17.73,-96.63 17.71,-28.31 32.08,-53.17 48.98,-80.75 73.34,-119.58 129.06,-197.28 209.86,-308.69 30.02,-41.37 96.6,-120.59 115,-156.69l-103.4 117.99c-12.75,15.48 -21.68,22.47 -33.79,38.06 -51.41,66.16 -212.98,237.82 -276.57,292.55l-151.13 130.87c-26.57,15.69 -61.16,58.66 -96.59,54.39 -10.71,-43.62 60.76,-94.07 76.48,-124.62l157.7 -146.39c21.4,-19.09 30.59,-31.11 52.14,-48.5 104.06,-83.99 303.19,-331.37 387.17,-433.88l136.46 -166.18c25.44,-28.98 27.87,-34.72 67.18,-16.47 8.71,46.85 -17.19,54.08 -67.57,116.91 -31.58,39.37 -62.18,68.08 -87.83,111.68l318.77 -351.2c-9.41,3.23 -110.88,54.43 -88.53,-20.99 14.38,-48.51 144.93,-164.3 195.45,-193.6 115.12,-66.77 237.96,-45.46 366.11,-8.82 235.84,67.46 433.7,143.62 641.4,236.27 -37.56,15.16 -54.32,15.97 -72.22,48.49 23.4,8.33 45.94,19.26 71.5,4.06 22.72,-13.52 14.53,-40.73 17.97,-49.01 83.27,-0.12 626.26,222.56 736.54,269.72zm-699.43 430.84l-0.8 4.05c-29.26,103.87 -86.65,137.07 -184.63,178.12 -42.51,17.82 -98.56,35.66 -147.56,19.19 -38.56,-12.96 -72.55,-52.15 -76.27,-98.07l-7.4 -4.6c-21.75,-167.14 -51.35,-282.23 -115.88,-417.98 -24.79,-52.14 -65.48,-130.87 -81.93,-184.44 -31.34,-102.04 54.81,-137.04 131.8,-88.92 37.69,23.56 37.11,34.26 63.55,66.28 158.37,191.83 173.45,184.71 332.13,337.66 43.75,42.18 87.61,96.89 86.99,188.7zm-828.02 190.76l-0.25 8.03c-10.7,143.35 -132.87,78.53 -285.87,135.28 -40.45,15.01 -116.73,52.95 -150.38,58.89 -76.27,13.47 -77.65,-58.69 -61.23,-114.52l3.72 -4.43c29.74,-127.24 258.66,-682.61 309.84,-810.67 16.15,-40.42 18.94,-71.13 67.46,-71.62 173.99,-1.79 -12.68,342.11 50.23,585.69 19.19,74.32 59.48,130.37 66.49,213.35zm-1280.13 -126.78c-46,46.11 -84.16,91.61 -131.38,138.66l-321.93 362.38c-19.38,25.69 -46.37,50.88 -47.23,89.64 164.84,0 231.4,-16.81 381.15,-29.44 175.49,-14.8 398.08,-38.25 558.73,40.41 61.31,30.02 56.3,20.78 147.8,-25.41 151.61,-76.55 390.86,-129.86 569.08,-129.64 44.4,0.05 91.27,-3.77 134.95,1.92 29.85,3.9 99.04,17.19 124.38,14.72 28.52,7.31 62.4,19.35 88.24,24.61 55.59,11.34 56.46,-12.18 91.83,-18.84 40.11,-64.18 343.34,-193.27 433.12,-223.19 97.7,-32.54 151.64,-44.57 269.6,-61.75 123.12,-17.93 195.96,34.62 271.82,-45.13 75.76,-79.63 118.45,-208.37 334.15,-328.55 268.02,-149.32 490.36,-73.78 556.96,-105.74 -10.63,-39.86 -75.11,-67.11 -112.19,-82.29l-279.86 -116.32c-46.08,-18.49 -101.08,-42.41 -147.95,-53.51 -164.58,-77.5 -1251.3,-420.08 -1488.6,-499.75 -38.69,-12.99 -72.51,-21.57 -109.88,-34.19 -29.15,-9.84 -78.03,-28.44 -108.94,-29.56 -82.71,-24.59 -98.27,-6.53 -151.27,22.73l-63.03 67.16c-111.54,111.36 -227.45,220.44 -331.42,338.5 -73.22,83.15 -220.26,213.51 -302.57,302.5l-97.15 104.54c-55.02,55.02 -114.75,108.31 -162.8,168.55l-105.61 106.98z"/> <path class="fil18" d="M5847.1 2290.66l-40.25 177.57c-8.68,22.17 -21.86,107.63 -22.55,132.17l7.16 57.63c46.41,-3.86 18.81,-16.22 51.19,-50.43 12.5,-24.04 4.98,-5.36 15.33,-29.8 3.72,-8.76 8.67,-23.64 11.66,-32.28 8.41,-24.32 14.23,-39.6 18.2,-66.94l31.18 -180.73c-13.43,-48.84 0.28,-75.11 -48.32,-86.44 -9.9,20.64 -14.04,53.06 -23.59,79.24z"/> <path class="fil10" d="M3212.68 7088.24c23.05,-12.95 12.49,-7.72 26.6,-81.54 6.43,-33.61 11.85,-63.14 18.12,-96.9 18.53,-99.8 95.68,-550.82 63.33,-596.55 -29.19,26.82 -101.01,598.88 -113.33,725.05 -2.82,28.88 -7.14,30.82 5.28,49.94z"/> <path class="fil20" d="M3345.33 4752.77c20.15,0.89 40.11,2.53 60.25,3.92 5.33,0.37 19.93,1.09 24.61,1.78 23.93,3.51 11.88,-0.94 26.51,7.95 19.21,-15.48 68.57,-110.51 80.94,-137.85l35.64 -60.88 -114.1 -8.35 -30.35 1.46c-18.86,41.67 -84.22,153.12 -83.51,191.97zm2183.69 -4233.86l276.85 23.68c18.47,-17.56 17.96,-24.19 28.82,-45.59 9.93,-19.58 18.73,-30.78 28.84,-50.35 15.49,-29.99 42.22,-67.29 50.38,-99.77l-219.42 -14.12 -68.7 -4.6 -96.77 190.76zm-206.76 432.69l253.11 15.88c12.29,-27.51 35.33,-67.22 51.81,-94.5 9.89,-16.39 16.12,-29.69 26.08,-45.93 11.55,-18.83 17.05,-25.26 23.56,-49.09 -36.65,-19.92 -185.1,-22.94 -237.41,-21.74l-37.64 -0.21 -94.34 180.43c11.35,11.93 -12.73,1.68 14.84,15.17zm-240.57 426.1l255.97 16.67 102.36 -191.41c-45.81,-22.18 -198.5,-18.32 -262.69,-24.79l-95.63 199.53zm-226.15 422.75l244.4 19.17c22.07,-36.59 35.18,-64.02 55.33,-100.32 10.92,-19.68 15.34,-24.17 26.34,-45.72 8.82,-17.28 21.76,-36.14 26.37,-49.55l-252.83 -18.34 -99.63 194.76zm-219.88 429.57l226.58 14.17c15.02,-16.56 101.41,-173.26 108.05,-194.71l-233.07 -17.71 -3.56 -0.54 -98 198.79zm-195.46 430.07c33.73,-2.14 64.73,1.84 97.9,4.49 16.51,1.32 34.87,3.45 51.14,4.24 24.59,1.19 25.23,5.14 42.5,-4.59 12.73,-23.82 96.4,-162.59 97.79,-186.3l-164.19 -13.64 -55.47 -1.98 -93.7 181.29c5.76,5.75 2.92,3.33 12.9,10.3 0.66,0.46 8.19,4.18 11.14,6.18zm-243.85 421.33l197.67 14.21c10.96,-29.91 37.05,-72.7 54.59,-102.09 17.11,-28.66 34.92,-71.56 53.47,-93.14l-182.35 -10.84 -32.81 2.31c-18.03,33.17 -91.23,161.33 -90.56,189.55zm-228.39 426.91l188.35 10.72c19.84,-31.6 33.43,-59.76 50.8,-89.89 13.33,-23.12 41.85,-67.96 51.65,-94.02 -16.34,-20.15 -65.95,-14.78 -94.19,-16.83 -32.01,-2.32 -65.35,-4.45 -97.97,-8.03l-98.64 198.05zm-224.81 442.31l161.1 11.65c19.43,-17.11 98.82,-168.13 115.19,-201.89 -56.49,10.36 -121.81,-7.12 -179.91,-6.47l-96.39 196.72zm-220.4 429.89c24.32,2.36 47.36,4.4 71.77,5.81 6.11,0.35 30.13,1.02 34.03,1.69 57.75,9.88 17.53,-2.94 33.95,17.93 40.63,-67.32 77.75,-142.21 119.24,-212.48l-160.52 -8.01 -3.29 -0.66 -95.17 195.73z"/> <path class="fil18" d="M5671.52 2261.84l-20 210.34 -3.32 99.41c16,46.39 1.61,54.21 28.01,93.64 27.01,-19.79 21.34,-41.32 35.98,-79.23l7.21 -187.31 4.64 -0.02 -2.92 -129.62c-4.46,-49.13 -1.03,-93.66 -30.49,-115.26 -4.8,20.57 -11.14,30.78 -13.49,51.43 -2.92,25.58 2.97,35.88 -5.61,56.62z"/> <path class="fil12" d="M1239.46 7374.71c11.61,18.08 12.48,39.66 18.69,66.31 34.85,-12.29 2.8,4.76 26.23,-28.01l-2.09 -272.89c-4.64,-104.32 27.28,-317.29 -38.77,-279.35 -24.85,14.28 -13.83,69.05 -13.09,97.62 1.81,69.68 2.67,139.3 5.28,208.62l10.92 187.15c-2.27,21.4 1.84,10.26 -7.18,20.54z"/> <path class="fil12" d="M1960.12 7077.82c-1.85,43.04 -11.2,221.29 6.38,246.21 25.08,-10.5 18.23,-48.58 21.38,-106.33l5.03 -401.92 1.11 -239.33c1.45,-32.3 9.91,-51.14 -13.1,-66.76 -12.64,10.94 -6.36,-8.01 -12.4,24.16l-8.4 543.97z"/> <path class="fil18" d="M5301.42 2384.3l40.08 158.44c5.92,9.1 20.09,57.9 24.95,69.3 11.43,26.82 15.55,48.73 50.44,53.7l14.37 -7.71c0,-59.1 -2.08,-112.21 -24.23,-151.72 -9.59,-22.51 -56.47,-145.3 -58.58,-158.03 -36.43,-29.6 -11.57,-53.5 -61.22,-57.62 0,34.02 3.94,71.47 14.19,93.64z"/> <path class="fil12" d="M4514.67 7173.56c-3.11,24.89 -87.8,195.09 -106.4,245.64 -19.9,54.07 -80.79,228.58 -71.07,286.49 27.25,-12.33 166.37,-462.52 249.91,-607.24 -12.53,-20.46 3.6,2.24 -13.01,-9.83l-59.44 84.95z"/> <path class="fil10" d="M231.67 6060.8l25.54 206.37c2.44,33.01 -3.06,55.28 16.2,69.2 17.65,-27.9 7.42,-94.73 5.85,-134.36 -1.62,-2.03 -2.98,-8 -3.45,-6.98l-10.07 -143.57c-14.09,-142.34 -9.21,-243.51 -10.75,-382.66 -0.42,-36.95 7.11,-52.7 -21.09,-64.8 -17.68,50.53 -2.04,377.3 -2.21,456.8z"/> <path class="fil12" d="M3716.04 7742.79c7.9,136.61 -138.84,352.56 -99.99,393.5 35.11,-15.07 16.14,-31.26 52.24,-48.5 0.36,-26.89 14.74,-36.81 27.56,-62.46 8.99,-17.98 17.69,-39.11 25.72,-60.89 17.25,-46.84 25.98,-101.76 32.03,-149.85l-10.59 -85.9c-8.11,-6.37 -11.9,-8.34 -19.26,-13.38l-7.71 27.47z"/> <path class="fil21" d="M677.28 3078.17c22.37,50.17 82.82,90.62 165.59,85.08 60.72,-4.06 146.37,-54.25 162.52,-87.22l18.04 -15.61c7.05,-13.21 15.83,-20.9 21.06,-33.48 9.1,-21.91 -1.51,-15.77 15.11,-36.15 3.57,-55.39 39.22,-123.2 62.36,-168.71 20.09,-39.5 69.85,-110.32 76.14,-145.13 50.55,-108.6 92.44,-233.56 137.76,-346.89 23.51,-58.84 45.98,-116.69 69.11,-175.77 16.56,-42.26 67.91,-137.48 70.17,-168.05 -20.7,4.41 -18.95,5.53 -35.24,13.29l-318.77 351.2 -60.23 73.59c-18.4,36.1 -84.98,115.32 -115,156.69 -80.81,111.41 -136.53,189.1 -209.86,308.69 -16.9,27.58 -31.27,52.44 -48.98,80.75 -23.42,37.42 -27.26,50.47 -17.73,96.63 -0.05,13.61 -3.95,11.09 7.97,11.09zm2367.67 -561.37c129.26,55 175.04,47.07 279.11,-28.17 28.96,-20.95 83.75,-55.55 84.96,-104.54 1.29,-51.97 -49.78,-86.66 -97.95,-91.55l-2.96 -6.86c-110.28,-47.15 -653.27,-269.83 -736.54,-269.72 -3.44,8.28 4.75,35.48 -17.97,49.01 -25.56,15.2 -48.1,4.27 -71.5,-4.06l-3.74 -3.86c-9.94,25.36 -20.05,41.27 -11.26,76.59 13.29,19.54 266.46,167.43 340.46,223.49l101.19 82.87 124.47 66.03 11.73 10.79zm-845.53 302.99c3.73,45.92 37.71,85.11 76.27,98.07 49.01,16.47 105.06,-1.37 147.56,-19.19 97.97,-41.05 155.37,-74.25 184.63,-178.12l0.8 -4.05c0.62,-91.82 -43.24,-146.52 -86.99,-188.7 -158.68,-152.95 -173.76,-145.83 -332.13,-337.66 -26.43,-32.02 -25.85,-42.73 -63.55,-66.28 -77,-48.12 -163.14,-13.13 -131.8,88.92 16.45,53.56 57.14,132.29 81.93,184.44 64.53,135.75 94.13,250.84 115.88,417.98l7.4 4.6zm-912.78 170.73l-3.72 4.43c-16.42,55.83 -15.04,127.99 61.23,114.52 33.65,-5.94 109.93,-43.88 150.38,-58.89 153.01,-56.76 275.17,8.07 285.87,-135.28l0.25 -8.03c-7.01,-82.97 -47.29,-139.03 -66.49,-213.35 -62.92,-243.58 123.75,-587.48 -50.23,-585.69 -48.52,0.5 -51.31,31.2 -67.46,71.62 -51.17,128.06 -280.09,683.42 -309.84,810.67z"/> <path class="fil10" d="M3788.46 7714.63c-6.98,37.64 -9.85,21.53 -21,50.4 -5.2,13.43 -10.6,36.02 -13.85,49.56 -6.05,48.08 -14.78,103.01 -32.03,149.85 -8.03,21.78 -16.73,42.91 -25.72,60.89 -12.82,25.65 -27.2,35.57 -27.56,62.46l25.45 0.99c32.97,-58.89 63.55,-102.64 93.31,-174.29 12.61,-30.35 25.75,-69.14 34.06,-103.18 13.88,-56.84 29.61,-100.64 -4.52,-108.25 -23.05,2.52 -15.94,-0.98 -28.14,11.56z"/> <path class="fil10" d="M2298.93 7910.5c3.45,44.3 -12.51,138.64 13.32,171.93 22.14,-9.56 18.32,-13.4 21.59,-43.76 2.58,-23.91 4.54,-40.17 -0.47,-61.7l4.94 -255.39c4.98,-123.62 34.38,-176.4 35.29,-205.06 -69.6,29.09 -74.43,311.85 -74.68,393.97z"/> <path class="fil10" d="M2731.07 8024.46l3.96 29.59c0.33,0.93 1.24,3.14 2.23,4.48 12.45,-19.45 18.75,-62.28 14.44,-85.09 21.32,-57.35 29.42,-232.96 40.24,-306.96 17.31,-118.53 58.47,-235.42 58.54,-235.95l-5.17 -24.95c-57.9,51.56 -92.35,347.78 -101.9,446 -10.37,106.76 7.76,134.47 -12.34,172.87z"/> <path class="fil10" d="M3486.4 7070.31l105.41 -461.01c7.86,-35.09 17.22,-45.87 -4.55,-60.33 -24.37,13.15 -25.04,65.84 -36.99,120.76 -10.53,48.42 -89.5,360.66 -63.86,400.58z"/> <path class="fil10" d="M2169.96 8031.45l20.05 149.16c5.98,36.24 20.77,116.84 57.42,122.49 33.3,-32.82 -26.88,-256.17 -64.83,-283.08l-12.64 11.44z"/> <path class="fil7" d="M3456.71 4766.41l-34.23 61.33 -37.92 78.43 37.03 1.31c11.25,-29.93 54.17,-93.23 73.96,-122.59 21.72,-32.23 64.52,-93.94 77.77,-126.34 -14.61,-15.87 -12.12,-19.05 -35.67,-29.99 -12.37,27.34 -61.73,122.36 -80.94,137.85z"/> <path class="fil12" d="M1281.74 7774.17c10.77,23.98 71.02,190.74 71.96,206.64 10.9,4.33 11.84,2.42 25.56,9.78l-68.41 -289.88c-3.44,-17.07 -5.74,-31.59 -9.41,-48.79 -7.16,-33.53 -1.46,-30.65 -27.76,-36.96 -9.1,26.37 7.27,80.52 12.42,117.97l-4.35 41.24z"/> <path class="fil12" d="M1877.83 8058.94c3.46,17.81 6.39,35.43 9.76,51.65 7.83,37.69 1.21,32.25 28.49,35.46 15.94,-23.65 -35.06,-333.91 -44.21,-374.95l-4.62 -3.55c-14.71,96.85 -4.68,196.31 10.58,291.39z"/> <path class="fil10" d="M3735.45 8157.22c31.31,2.36 193.06,-135.96 193.03,-308.46 -12.97,12.2 -2.7,-4.05 -13.99,19.8 -2.06,4.35 -6.07,18.59 -7.26,22.4 -6.24,20.05 -9.71,28.39 -18.56,46.09 -14.95,29.93 -30.73,54.82 -49.36,80.25 -33.38,45.61 -105.23,118.6 -103.87,139.92z"/> <path class="fil10" d="M388.16 5716.63c-1.34,57.16 -11.73,117.01 -3.28,173.2l3.52 24.74c7.56,-125.5 47.07,-204.38 50.28,-226.42 4.55,-31.25 5.1,-16.76 -7.29,-31.42 -38.1,7.92 -19.03,31.11 -43.24,59.9z"/> <path class="fil22" d="M3422.48 4827.75l34.23 -61.33c-14.63,-8.89 -2.58,-4.43 -26.51,-7.95 -4.69,-0.69 -19.29,-1.4 -24.61,-1.78 -20.14,-1.4 -40.11,-3.04 -60.25,-3.92l-8.17 0.4 1.93 25.83c21.03,12.08 55.94,39.4 83.39,48.75zm2207.95 -4507.69l64.06 12.69 219.42 14.12c19.98,-25.55 105.11,-167.48 108.05,-202.81 -35.07,-9.36 -180.88,-105.82 -230.5,-124.67l-161.04 300.66zm-222.94 428.04l31.91 8.12c52.31,-1.2 200.76,1.82 237.41,21.74 26.99,-33.38 42.11,-76.31 64.55,-114.93 12.27,-21.11 20.37,-35.02 33.21,-60.44 12.68,-25.11 24.52,-35.4 31.3,-60l-276.85 -23.68 -14.19 0.45c4.44,35.45 -34.59,84.96 -51.35,117.64 -17.2,33.52 -41.18,75.27 -56,111.09zm-240.47 423.14l10.3 6.94c64.19,6.47 216.87,2.61 262.69,24.79 22.82,-31.84 47.34,-79.83 68.05,-117.73 22.39,-40.96 43.6,-81.2 67.31,-117.75l-253.11 -15.88 -24.11 -0.65c-14.51,37.42 -38.27,76.4 -59.74,116.47 -18.25,34.05 -32.98,93.65 -71.38,103.8zm-223.4 429.84l11.55 4.61 252.83 18.34c24.92,-38.14 43.15,-80.14 65.15,-118.21 11.19,-19.35 18.62,-32.51 30.88,-55.56 7.86,-14.78 25.55,-45.83 33.62,-55.89l-255.97 -16.67 -5.92 0.72c-21.03,38.66 -37.43,74.44 -59.62,115.38 -10.84,19.98 -19.56,35.09 -30.01,56.03 -13.47,27 -13.68,46.92 -42.51,51.24zm-206.41 430.69l233.07 17.71c24.58,-26.57 104.92,-199.96 129.66,-229.86l-244.4 -19.17 -118.33 231.32zm-221.29 422.56l49.41 9.98 164.19 13.64c19.2,-16.33 125.77,-211.78 132.72,-233.76l-226.58 -14.17 -10.58 -4.29c-1,42.87 -86.57,182.13 -109.16,228.6zm-221.45 428.77l25.24 6.47 182.35 10.84 129.66 -236.16c-17.27,9.72 -17.91,5.78 -42.5,4.59 -16.27,-0.79 -34.63,-2.93 -51.14,-4.24 -33.17,-2.66 -64.17,-6.64 -97.9,-4.49l-34.91 -2.72 -110.82 225.73zm-238.78 421.62l10.9 5.56c32.63,3.58 65.96,5.71 97.97,8.03 28.24,2.05 77.85,-3.32 94.19,16.83 12.56,-17.73 20.61,-38.56 33.03,-59.01 13.29,-21.89 20.54,-36.68 32.59,-61.05 11.94,-24.15 55.68,-108.73 69.63,-119.45l-197.67 -14.21 -10.13 0.39c-15.31,39.95 -40.29,84.48 -60.44,122.11 -17.64,32.93 -31.88,89.27 -70.09,100.8zm-256.66 437.97c14.8,11.64 17.09,8.47 40.5,11.24 58.09,-0.65 123.42,16.83 179.91,6.47 12.68,-27.95 52.1,-104.82 72.04,-121.6 11.7,-24.13 18.59,-37.7 32.97,-61.78 12.55,-20.99 18.64,-40.85 31.85,-57.96l-188.35 -10.72 -121.07 241.19 -47.86 -6.83zm-177.81 442.79l160.52 8.01 41.38 -74.93 81.13 -156.27 -161.1 -11.65 -11.17 -0.46c3.4,27.1 -92.77,191.26 -110.76,235.29zm-185.02 367.47l23 6.4 114.1 8.35 89.2 -161.72c-16.42,-20.88 23.8,-8.06 -33.95,-17.93 -3.9,-0.67 -27.92,-1.35 -34.03,-1.69 -24.41,-1.41 -47.45,-3.45 -71.77,-5.81l-8.87 -0.39c-4.12,40.17 -63.47,125.31 -77.69,172.8z"/> <path class="fil23" d="M1196.31 2966.61c47.57,-27.73 103.29,-175.58 125.8,-242.46 -8.28,7.14 -4.43,1.85 -11.9,12.07 -3.63,4.96 -5.21,8.04 -8.26,13.72 -33.49,62.59 -55.52,136.39 -105.63,216.66z"/> <path class="fil12" d="M3743.01 7728.7l10.59 85.9c3.25,-13.54 8.65,-36.13 13.85,-49.56 11.15,-28.87 14.02,-12.76 21,-50.4 -1.13,-0.54 -3.08,-2.59 -3.5,-1.33l-16.42 2.33c-7.05,2.86 -17.08,9.63 -25.52,13.07z"/> <path class="fil24" d="M1023.42 3060.42l64.97 -4.84c-11.03,-9.85 -19.07,-14.12 -30.75,-22.43l1.94 -42.36c-16.62,20.39 -6.02,14.24 -15.11,36.15 -5.22,12.57 -14,20.26 -21.06,33.48z"/> <path class="fil12" d="M1594.86 7882.05c1.28,6.74 -0.32,13.32 7.75,17.09 27.86,13 18.9,-2.92 20,-3.5l3.14 -17.25c-0.83,-0.33 -12.75,-22.08 -30.89,3.66z"/> <path class="fil12" d="M1493.23 7510.72l21.25 2.49c8.93,-25.74 10.1,-25.56 -14.92,-33.2 -12.75,13.49 -13.78,0.46 -6.33,30.71z"/> </g> </g> </svg>