<?xml version="1.0" encoding="UTF-8"?>
<svg version="1.1" viewBox="0 0 500 500" xmlns="http://www.w3.org/2000/svg" xmlns:xlink="http://www.w3.org/1999/xlink">
 <defs>
  <radialGradient id="a" cx="281.96" cy="536.67" r="211.59" gradientTransform="matrix(1 0 0 .12178 0 471.31)" gradientUnits="userSpaceOnUse">
   <stop offset="0"/>
   <stop stop-opacity=".95294" offset=".044496"/>
  </radialGradient>
  <linearGradient id="c" x1="245.23" x2="282.76" y1="104.37" y2="184.4" gradientTransform="matrix(23.05 0 0 -23.05 -3856 5277.2)" gradientUnits="userSpaceOnUse">
   <stop stop-color="#ccc" offset="0"/>
   <stop stop-color="#808080" offset="1"/>
  </linearGradient>
  <filter id="k" color-interpolation-filters="sRGB">
   <feGaussianBlur stdDeviation="2.1290943"/>
  </filter>
  <filter id="l" color-interpolation-filters="sRGB">
   <feGaussianBlur stdDeviation="3.0817451"/>
  </filter>
  <filter id="m" color-interpolation-filters="sRGB">
   <feGaussianBlur stdDeviation="3.0817451"/>
  </filter>
  <filter id="o" color-interpolation-filters="sRGB">
   <feGaussianBlur stdDeviation="3.0817451"/>
  </filter>
  <filter id="p" color-interpolation-filters="sRGB">
   <feGaussianBlur stdDeviation="3.0817451"/>
  </filter>
  <filter id="q" color-interpolation-filters="sRGB">
   <feGaussianBlur stdDeviation="1.9852151"/>
  </filter>
  <filter id="t" color-interpolation-filters="sRGB">
   <feGaussianBlur stdDeviation="1.8150568"/>
  </filter>
  <filter id="s" color-interpolation-filters="sRGB">
   <feGaussianBlur stdDeviation="2.2142605"/>
  </filter>
  <filter id="u" color-interpolation-filters="sRGB">
   <feGaussianBlur stdDeviation="1.7075197"/>
  </filter>
  <filter id="v" color-interpolation-filters="sRGB">
   <feGaussianBlur stdDeviation="1.9756463"/>
  </filter>
  <filter id="r" color-interpolation-filters="sRGB">
   <feGaussianBlur stdDeviation="2.1878655"/>
  </filter>
  <filter id="w" color-interpolation-filters="sRGB">
   <feGaussianBlur stdDeviation="1.8703984"/>
  </filter>
  <filter id="n" color-interpolation-filters="sRGB">
   <feGaussianBlur stdDeviation="3.0817451"/>
  </filter>
  <filter id="y" color-interpolation-filters="sRGB">
   <feGaussianBlur stdDeviation="1.6152692"/>
  </filter>
  <filter id="x" color-interpolation-filters="sRGB">
   <feGaussianBlur stdDeviation="2.1878655"/>
  </filter>
  <filter id="h" color-interpolation-filters="sRGB">
   <feGaussianBlur stdDeviation="2.6187566"/>
  </filter>
  <filter id="j" color-interpolation-filters="sRGB">
   <feGaussianBlur stdDeviation="2.7954182"/>
  </filter>
  <filter id="i" color-interpolation-filters="sRGB">
   <feGaussianBlur stdDeviation="2.0032066"/>
  </filter>
  <filter id="g" color-interpolation-filters="sRGB">
   <feGaussianBlur stdDeviation="2.1838664"/>
  </filter>
  <linearGradient id="d" x1="180.59" x2="317.5" y1="135.47" y2="135.47" gradientTransform="matrix(23.05 0 0 -23.05 -3856 5277.2)" gradientUnits="userSpaceOnUse">
   <stop stop-color="#ccc" offset="0"/>
   <stop stop-color="#fff" stop-opacity=".98431" offset=".5"/>
   <stop stop-color="#ccc" stop-opacity=".99043" offset="1"/>
  </linearGradient>
  <linearGradient id="e" x1="202.17" x2="212.59" y1="125.07" y2="118.13" gradientTransform="matrix(23.05 0 0 -23.05 -3856 5277.2)" gradientUnits="userSpaceOnUse">
   <stop stop-color="#ccc" offset="0"/>
   <stop stop-color="#999" offset="1"/>
  </linearGradient>
  <linearGradient id="f" x1="195.52" x2="216.19" y1="198.68" y2="173.8" gradientTransform="matrix(23.05 0 0 -23.05 -3832.9 5254.1)" gradientUnits="userSpaceOnUse">
   <stop stop-color="#800000" offset="0"/>
   <stop stop-color="#a00" offset="1"/>
  </linearGradient>
  <linearGradient id="b" x1="1711.1" x2="2427.8" y1="1605.2" y2="1605.2" gradientUnits="userSpaceOnUse">
   <stop stop-color="#800000" offset="0"/>
   <stop stop-color="#800000" stop-opacity=".99522" offset="1"/>
  </linearGradient>
 </defs>
 <g transform="translate(0 -552.36)">
  <g transform="matrix(.125 0 0 -.125 3.5006e-7 1052.4)">
   <path transform="matrix(7.2696 -.055061 -.12845 -8.9212 63.55 5200.1)" d="m493.55 536.67c0 14.231-94.734 25.768-211.59 25.768-116.86 0-211.59-11.537-211.59-25.768s94.734-25.768 211.59-25.768c116.86 0 211.59 11.537 211.59 25.768z" fill="url(#a)" opacity=".5"/>
   <path d="m780.01 2761.1 428.06-1292.3h1744.6l428.55 1291.4s-373.08 401.39-622.39 485.5c-433.7 146.3-940.77 134.33-1373-16.154-241.06-83.922-605.75-468.45-605.75-468.45z" fill="#890000"/>
   <path d="m780.01 2738.1 428.06-1292.3h1744.6l428.55 1291.4s-373.08 401.39-622.39 485.5c-433.7 146.3-940.77 134.33-1373-16.153-241.06-83.922-605.75-468.45-605.75-468.45z" fill="url(#c)"/>
   <g transform="matrix(2.8813 0 0 2.8813 -3856 -3222.5)" filter="url(#k)" opacity=".5">
    <path d="m2084.3 2393.9-15.417-710.61 47.654-7.0079 15.417 728.83z"/>
    <path transform="matrix(8,0,0,-8,0,2950)" d="m260.87 69.511-4.2048-1.752-2.1024 93.906 4.38-3.1536z"/>
    <path transform="matrix(8,0,0,-8,0,2950)" d="m256.53 67.847 4.4238 1.7958 5.475-1.4454-3.5478-1.0512z"/>
   </g>
   <g transform="matrix(2.8813 0 0 2.8813 -3856 -3222.5)">
    <path d="m2084.3 2393.9-15.417-710.61 47.654-7.0079 15.417 728.83z" fill="#f7d333"/>
    <path transform="matrix(8,0,0,-8,0,2950)" d="m260.87 69.511-4.2048-1.752-2.1024 93.906 4.38-3.1536z" fill="#efb319"/>
    <path transform="matrix(8,0,0,-8,0,2950)" d="m256.53 67.847 4.4238 1.7958 5.475-1.4454-3.5478-1.0512z" fill="#fcec3d"/>
   </g>
   <g transform="matrix(2.8783 -.12989 .12989 2.8783 -4108.7 -2956.8)" filter="url(#l)" opacity=".5">
    <path transform="matrix(8,0,0,-8,0,2950)" d="m251.48 75.145 4.2121-1.7344-0.99107 92.17-5.1907 1.1362z"/>
    <path transform="matrix(8,0,0,-8,0,2950)" d="m244.93 74.416 6.5373 0.59816-1.219 91.804-5.9464-6.6897z"/>
    <path transform="matrix(8,0,0,-8,0,2950)" d="m244.93 74.46 6.7013 0.70079 4.2048-1.7082-5.8254-0.4818z"/>
   </g>
   <g transform="matrix(2.8783 -.12989 .12989 2.8783 -4108.7 -2956.8)">
    <path transform="matrix(8,0,0,-8,0,2950)" d="m251.48 75.145 4.2121-1.7344-0.99107 92.17-5.1907 1.1362z" fill="#efb319"/>
    <path transform="matrix(8,0,0,-8,0,2950)" d="m244.93 74.416 6.5373 0.59816-1.219 91.804-5.9464-6.6897z" fill="#f7d333"/>
    <path transform="matrix(8,0,0,-8,0,2950)" d="m244.93 74.46 6.7013 0.70079 4.2048-1.7082-5.8254-0.4818z" fill="#fcec3d"/>
   </g>
   <g transform="matrix(2.8672 -.28385 .28385 2.8672 -4325.2 -2706.3)" filter="url(#m)" opacity=".5">
    <path transform="matrix(8,0,0,-8,0,2950)" d="m229.69 77.22 10.162 80.416 7.0079 1.5768-11.038-82.694-6.8328-2.1024z"/>
    <path transform="matrix(8,0,0,-8,0,2950)" d="m235.64 76.519 3.1536-2.2776 11.914 87.074-4.918-1.6068z"/>
    <path transform="matrix(8,0,0,-8,0,2950)" d="m228.91 74.551 6.7602 2.0086 3.0992-2.1612-5.5519-1.9992z"/>
   </g>
   <g transform="matrix(2.8672 -.28385 .28385 2.8672 -4325.2 -2706.3)">
    <path transform="matrix(8,0,0,-8,0,2950)" d="m229.69 77.22 10.162 80.416 7.0079 1.5768-11.038-82.694-6.8328-2.1024z" fill="#f7d333"/>
    <path transform="matrix(8,0,0,-8,0,2950)" d="m235.64 76.519 3.1536-2.2776 11.914 87.074-4.918-1.6068z" fill="#efb319"/>
    <path transform="matrix(8,0,0,-8,0,2950)" d="m228.91 74.551 6.7602 2.0086 3.0992-2.1612-5.5519-1.9992z" fill="#fcec3d"/>
   </g>
   <g transform="matrix(2.7481 -.86578 .86578 2.7481 -5259.8 -1255.3)" filter="url(#o)" opacity=".5">
    <path transform="matrix(8,0,0,-8,0,2950)" d="m213.58 131.88-15.362-39.147 6.442-5.4509 28.741 64.42z"/>
    <path d="m1633.3 2247.8 15.857 19.821 238.4-573.32-79.825 36.16z"/>
    <path transform="matrix(8,0,0,-8,0,2950)" d="m198.23 92.945 2.1939-4.8635 5.9528-2.7765-1.7221 3.6625z"/>
   </g>
   <g transform="matrix(2.7481 -.86578 .86578 2.7481 -5259.8 -1255.3)">
    <path transform="matrix(8,0,0,-8,0,2950)" d="m213.58 131.88-15.362-39.147 6.442-5.4509 28.741 64.42z" fill="#f7d333"/>
    <path d="m1633.3 2247.8 15.857 19.821 238.4-573.32-79.825 36.16z" fill="#efb319"/>
    <path transform="matrix(8,0,0,-8,0,2950)" d="m198.23 92.945 2.1939-4.8635 5.9528-2.7765-1.7221 3.6625z" fill="#fcec3d"/>
   </g>
   <g transform="matrix(2.8813 0 0 2.8813 -3856 -3222.5)" filter="url(#p)" opacity=".5">
    <path transform="matrix(8,0,0,-8,0,2950)" d="m213.58 131.88-15.362-39.147 6.442-5.4509 28.741 64.42z"/>
    <path d="m1633.3 2247.8 15.857 19.821 238.4-573.32-79.825 36.16z"/>
    <path transform="matrix(8,0,0,-8,0,2950)" d="m198.68 92.287 1.752-4.2048 5.256-2.1024-1.0512 4.5552z"/>
   </g>
   <g transform="matrix(2.8813 0 0 2.8813 -3856 -3222.5)">
    <path transform="matrix(8,0,0,-8,0,2950)" d="m213.58 131.88-15.362-39.147 6.442-5.4509 28.741 64.42z" fill="#f7d333"/>
    <path d="m1633.3 2247.8 15.857 19.821 238.4-573.32-79.825 36.16z" fill="#efb319"/>
    <path transform="matrix(8,0,0,-8,0,2950)" d="m198.68 92.287 1.752-4.2048 5.256-2.1024-1.0512 4.5552z" fill="#fcec3d"/>
   </g>
   <g transform="matrix(2.88 .084188 -.084188 2.88 -3681.5 -3359.1)" filter="url(#q)" opacity=".5">
    <path transform="matrix(8,0,0,-8,0,2950)" d="m266.83 74.241 6.6576 79.891 5.0808-0.876-6.6576-77.263z"/>
    <path transform="matrix(8,0,0,-8,0,2950)" d="m271.73 76.168 4.9056-2.1024 6.4824 79.19-4.7304 0.5256z"/>
    <path transform="matrix(8,0,0,-8,0,2950)" d="m266.83 74.416 5.256 1.752 4.7304-1.9272-5.6064-0.87599z"/>
   </g>
   <g transform="matrix(2.88 .084188 -.084188 2.88 -3681.5 -3359.1)">
    <path transform="matrix(8,0,0,-8,0,2950)" d="m266.83 74.241 6.6576 79.891 5.0808-0.876-6.6576-77.263z" fill="#f7d333"/>
    <path transform="matrix(8,0,0,-8,0,2950)" d="m271.73 76.168 4.9056-2.1024 6.4824 79.19-4.7304 0.5256z" fill="#efb319"/>
    <path transform="matrix(8,0,0,-8,0,2950)" d="m266.83 74.416 5.256 1.752 4.7304-1.9272-5.6064-0.87599z" fill="#fcec3d"/>
   </g>
   <g transform="matrix(2.8813 0 0 2.8813 -3856 -3222.5)" filter="url(#t)" opacity=".5">
    <path transform="matrix(8,0,0,-8,0,2950)" d="m284 78.446-6.8327 1.5768 1.9272 71.306 7.1831-4.9056z"/>
    <path transform="matrix(8,0,0,-8,0,2950)" d="m277.16 79.848-3.8544-1.5768 2.4528 75.861 3.504-1.9272z"/>
    <path transform="matrix(8,0,0,-8,0,2950)" d="m273.13 78.534 6.3072-2.0148 4.818 2.19-6.9203 1.314z"/>
   </g>
   <g transform="matrix(2.8813 0 0 2.8813 -3856 -3222.5)">
    <path transform="matrix(8,0,0,-8,0,2950)" d="m284 78.446-6.8327 1.5768 1.9272 71.306 7.1831-4.9056z" fill="#f7d333"/>
    <path transform="matrix(8,0,0,-8,0,2950)" d="m277.16 79.848-3.8544-1.5768 2.4528 75.861 3.504-1.9272z" fill="#efb319"/>
    <path transform="matrix(8,0,0,-8,0,2950)" d="m273.13 78.534 6.3072-2.0148 4.818 2.19-6.9203 1.314z" fill="#fcec3d"/>
   </g>
   <g transform="matrix(-2.8813 0 0 2.8813 8301.7 -3182.5)" filter="url(#s)" opacity=".5">
    <path transform="matrix(8,0,0,-8,0,2950)" d="m229.69 77.22 10.162 80.416 7.0079 1.5768-11.038-82.694-6.8328-2.1024z"/>
    <path transform="matrix(8,0,0,-8,0,2950)" d="m235.64 76.519 3.1536-2.2776 11.914 87.074-4.918-1.6068z"/>
    <path transform="matrix(8,0,0,-8,0,2950)" d="m228.91 74.551 6.7602 2.0086 3.0992-2.1612-5.5519-1.9992z"/>
   </g>
   <g transform="matrix(-2.8813 0 0 2.8813 8301.7 -3182.5)">
    <path transform="matrix(8,0,0,-8,0,2950)" d="m229.69 77.22 10.162 80.416 7.0079 1.5768-11.038-82.694-6.8328-2.1024z" fill="#f7d333"/>
    <path transform="matrix(8,0,0,-8,0,2950)" d="m235.64 76.519 3.1536-2.2776 11.914 87.074-4.918-1.6068z" fill="#efb319"/>
    <path transform="matrix(8,0,0,-8,0,2950)" d="m228.91 74.551 6.7602 2.0086 3.0992-2.1612-5.5519-1.9992z" fill="#fcec3d"/>
   </g>
   <g transform="matrix(2.8714 .23788 -.23788 2.8714 -1981.8 -3591)" filter="url(#u)" opacity=".5">
    <path d="m1803.8 2277.5 45.589-25.768 19.822-483.64-61.446 57.482z"/>
    <path d="m1849.3 2251.7 29.732 13.875 13.875-525.27-33.696 39.643z"/>
    <path d="m1802.8 2275.4 47.571-23.786 30.723 13.875-20.813 23.786-28.741 6.9375z"/>
   </g>
   <g transform="matrix(2.8714 .23788 -.23788 2.8714 -1981.8 -3591)">
    <path d="m1803.8 2277.5 45.589-25.768 19.822-483.64-61.446 57.482z" fill="#efb319"/>
    <path d="m1849.3 2251.7 29.732 13.875 13.875-525.27-33.696 39.643z" fill="#f7d333"/>
    <path d="m1802.8 2275.4 47.571-23.786 30.723 13.875-20.813 23.786-28.741 6.9375z" fill="#fcec3d"/>
   </g>
   <g transform="matrix(-2.7653 -.9054 -.80924 3.0939 9369.1 -2031.2)" filter="url(#v)" opacity=".5">
    <path transform="matrix(8,0,0,-8,0,2950)" d="m213.58 131.88-15.362-39.147 6.442-5.4509 28.741 64.42z"/>
    <path d="m1633.3 2247.8 15.857 19.821 238.4-573.32-79.825 36.16z"/>
    <path transform="matrix(8,0,0,-8,0,2950)" d="m198.68 92.287 1.752-4.2048 5.256-2.1024-1.0512 4.5552z"/>
   </g>
   <g transform="matrix(-2.7653 -.9054 -.80924 3.0939 9369.1 -2031.2)">
    <path transform="matrix(8,0,0,-8,0,2950)" d="m213.58 131.88-15.362-39.147 6.442-5.4509 28.741 64.42z" fill="#f7d333"/>
    <path d="m1633.3 2247.8 15.857 19.821 238.4-573.32-79.825 36.16z" fill="#efb319"/>
    <path transform="matrix(8,0,0,-8,0,2950)" d="m198.68 92.287 1.752-4.2048 5.256-2.1024-1.0512 4.5552z" fill="#fcec3d"/>
   </g>
   <g transform="matrix(-2.8813 0 0 2.8813 8087.4 -3216.8)" filter="url(#r)" opacity=".5">
    <path transform="matrix(8,0,0,-8,0,2950)" d="m213.58 131.88-15.362-39.147 6.442-5.4509 28.741 64.42z"/>
    <path d="m1633.3 2247.8 15.857 19.821 238.4-573.32-79.825 36.16z"/>
    <path transform="matrix(8,0,0,-8,0,2950)" d="m198.68 92.287 1.752-4.2048 5.256-2.1024-1.0512 4.5552z"/>
   </g>
   <g transform="matrix(-2.8813 0 0 2.8813 8087.4 -3216.8)">
    <path transform="matrix(8,0,0,-8,0,2950)" d="m213.58 131.88-15.362-39.147 6.442-5.4509 28.741 64.42z" fill="#f7d333"/>
    <path d="m1633.3 2247.8 15.857 19.821 238.4-573.32-79.825 36.16z" fill="#efb319"/>
    <path transform="matrix(8,0,0,-8,0,2950)" d="m198.68 92.287 1.752-4.2048 5.256-2.1024-1.0512 4.5552z" fill="#fcec3d"/>
   </g>
   <g transform="matrix(-2.6917 -1.105 -1.0331 3.0265 9616 -2215.1)" filter="url(#w)" opacity=".5">
    <path transform="matrix(8,0,0,-8,0,2950)" d="m213.58 131.88-15.362-39.147 6.442-5.4509 28.741 64.42z"/>
    <path d="m1633.3 2247.8 15.857 19.821 238.4-573.32-79.825 36.16z"/>
    <path transform="matrix(8,0,0,-8,0,2950)" d="m198.68 92.287 1.752-4.2048 5.256-2.1024-1.0512 4.5552z"/>
   </g>
   <g transform="matrix(-2.6917 -1.105 -1.0331 3.0265 9616 -2215.1)">
    <path transform="matrix(8,0,0,-8,0,2950)" d="m213.58 131.88-15.362-39.147 6.442-5.4509 28.741 64.42z" fill="#f7d333"/>
    <path d="m1633.3 2247.8 15.857 19.821 238.4-573.32-79.825 36.16z" fill="#efb319"/>
    <path transform="matrix(8,0,0,-8,0,2950)" d="m198.68 92.287 1.752-4.2048 5.256-2.1024-1.0512 4.5552z" fill="#fcec3d"/>
   </g>
   <g transform="matrix(2.8813 0 0 2.8813 -3902.1 -3222.5)" filter="url(#n)" opacity=".5">
    <path transform="matrix(8,0,0,-8,0,2950)" d="m229.69 77.22 10.162 80.416 7.0079 1.5768-11.038-82.694-6.8328-2.1024z"/>
    <path transform="matrix(8,0,0,-8,0,2950)" d="m235.64 76.519 3.1536-2.2776 11.914 87.074-4.918-1.6068z"/>
    <path transform="matrix(8,0,0,-8,0,2950)" d="m228.91 74.551 6.7602 2.0086 3.0992-2.1612-5.5519-1.9992z"/>
   </g>
   <g transform="matrix(2.8813 0 0 2.8813 -3902.1 -3222.5)">
    <path transform="matrix(8,0,0,-8,0,2950)" d="m229.69 77.22 10.162 80.416 7.0079 1.5768-11.038-82.694-6.8328-2.1024z" fill="#f7d333"/>
    <path transform="matrix(8,0,0,-8,0,2950)" d="m235.64 76.519 3.1536-2.2776 11.914 87.074-4.918-1.6068z" fill="#efb319"/>
    <path transform="matrix(8,0,0,-8,0,2950)" d="m228.91 74.551 6.7602 2.0086 3.0992-2.1612-5.5519-1.9992z" fill="#fcec3d"/>
   </g>
   <g transform="matrix(2.8813 0 0 2.8813 -3902.1 -3176.4)" filter="url(#y)" opacity=".5">
    <path d="m1803.8 2277.5 45.589-25.768 19.822-483.64-61.446 57.482z"/>
    <path d="m1849.3 2251.7 29.732 13.875 13.875-525.27-33.696 39.643z"/>
    <path d="m1802.8 2275.4 47.571-23.786 30.723 13.875-20.813 23.786-28.741 6.9375z"/>
   </g>
   <g transform="matrix(2.8813 0 0 2.8813 -3902.1 -3176.4)">
    <path d="m1803.8 2277.5 45.589-25.768 19.822-483.64-61.446 57.482z" fill="#efb319"/>
    <path d="m1849.3 2251.7 29.732 13.875 13.875-525.27-33.696 39.643z" fill="#f7d333"/>
    <path d="m1802.8 2275.4 47.571-23.786 30.723 13.875-20.813 23.786-28.741 6.9375z" fill="#fcec3d"/>
   </g>
   <g transform="matrix(2.8813 0 0 2.8813 -3576.2 -3388.1)" filter="url(#x)" opacity=".5">
    <path transform="matrix(8,0,0,-8,0,2950)" d="m213.58 131.88-15.362-39.147 6.442-5.4509 28.741 64.42z"/>
    <path d="m1633.3 2247.8 15.857 19.821 238.4-573.32-79.825 36.16z"/>
    <path transform="matrix(8,0,0,-8,0,2950)" d="m198.68 92.287 1.752-4.2048 5.256-2.1024-1.0512 4.5552z"/>
   </g>
   <g transform="matrix(1.585 0 0 1.585 -531.32 -88.139)" filter="url(#h)" opacity=".5">
    <path transform="matrix(8,0,0,-8,0,2950)" d="m176.91 152.7 11.893 4.4598 8.4241 94.647-16.848-5.9464z"/>
    <path transform="matrix(8,0,0,-8,0,2950)" d="m188.8 156.66 6.9375-2.4777 9.4152 96.63-7.9286 1.9821z"/>
    <path transform="matrix(8,0,0,-8,0,2950)" d="m176.95 152.73 11.563 4.7304 7.5335-3.6792-9.9863-3.6792z"/>
   </g>
   <g transform="matrix(1.585 0 0 1.585 -531.32 -88.139)">
    <path transform="matrix(8,0,0,-8,0,2950)" d="m176.91 152.7 11.893 4.4598 8.4241 94.647-16.848-5.9464z" fill="#f7d333"/>
    <path transform="matrix(8,0,0,-8,0,2950)" d="m188.8 156.66 6.9375-2.4777 9.4152 96.63-7.9286 1.9821z" fill="#efb319"/>
    <path transform="matrix(8,0,0,-8,0,2950)" d="m176.95 152.73 11.563 4.7304 7.5335-3.6792-9.9863-3.6792z" fill="#fcec3d"/>
   </g>
   <g transform="matrix(2.8813 0 0 2.8813 -3576.2 -3388.1)">
    <path transform="matrix(8,0,0,-8,0,2950)" d="m213.58 131.88-15.362-39.147 6.442-5.4509 28.741 64.42z" fill="#f7d333"/>
    <path d="m1633.3 2247.8 15.857 19.821 238.4-573.32-79.825 36.16z" fill="#efb319"/>
    <path transform="matrix(8,0,0,-8,0,2950)" d="m198.68 92.287 1.752-4.2048 5.256-2.1024-1.0512 4.5552z" fill="#fcec3d"/>
   </g>
   <g transform="matrix(1.585 0 0 1.585 -531.32 -88.139)" filter="url(#j)" opacity=".5">
    <path d="m1724.5 2029.7 3.9643-947.47 83.25 15.857-19.822 911.79z"/>
    <path d="m1789.9 2011.9 48.052 20.643 23.305-886.84-48.981-49.638z"/>
    <path d="m1724 2032.3 67.276-22.425 50.457 22.425-44.851 30.835z"/>
   </g>
   <g transform="matrix(1.585 0 0 1.585 -531.32 -88.139)">
    <path d="m1724.5 2029.7 3.9643-947.47 83.25 15.857-19.822 911.79z" fill="#efb319"/>
    <path d="m1789.9 2011.9 48.052 20.643 23.305-886.84-48.981-49.638z" fill="#f7d333"/>
    <path d="m1724 2032.3 67.276-22.425 50.457 22.425-44.851 30.835z" fill="#fcec3d"/>
   </g>
   <g transform="matrix(-2.7832 -.84867 -.74581 3.1098 8744.2 -2709.5)" filter="url(#i)" opacity=".5">
    <path transform="matrix(8,0,0,-8,0,2950)" d="m213.58 131.88-15.362-39.147 6.442-5.4509 28.741 64.42z"/>
    <path d="m1633.3 2247.8 15.857 19.821 238.4-573.32-79.825 36.16z"/>
    <path transform="matrix(8,0,0,-8,0,2950)" d="m198.68 92.287 1.752-4.2048 5.256-2.1024-1.0512 4.5552z"/>
   </g>
   <g transform="matrix(2.8783 -.12989 .12989 2.8783 -3934.9 -3887.5)" filter="url(#g)" opacity=".5">
    <path transform="matrix(8,0,0,-8,0,2950)" d="m251.48 75.145 4.2121-1.7344-0.99107 92.17-5.1907 1.1362z"/>
    <path transform="matrix(8,0,0,-8,0,2950)" d="m244.93 74.416 6.5373 0.59816-1.219 91.804-5.9464-6.6897z"/>
    <path transform="matrix(8,0,0,-8,0,2950)" d="m244.93 74.46 6.7013 0.70079 4.2048-1.7082-5.8254-0.4818z"/>
   </g>
   <g transform="matrix(2.8783 -.12989 .12989 2.8783 -3934.9 -3887.5)">
    <path transform="matrix(8,0,0,-8,0,2950)" d="m251.48 75.145 4.2121-1.7344-0.99107 92.17-5.1907 1.1362z" fill="#efb319"/>
    <path transform="matrix(8,0,0,-8,0,2950)" d="m244.93 74.416 6.5373 0.59816-1.219 91.804-5.9464-6.6897z" fill="#f7d333"/>
    <path transform="matrix(8,0,0,-8,0,2950)" d="m244.93 74.46 6.7013 0.70079 4.2048-1.7082-5.8254-0.4818z" fill="#fcec3d"/>
   </g>
   <g transform="matrix(-2.7832 -.84867 -.74581 3.1098 8744.2 -2709.5)">
    <path transform="matrix(8,0,0,-8,0,2950)" d="m213.58 131.88-15.362-39.147 6.442-5.4509 28.741 64.42z" fill="#f7d333"/>
    <path d="m1633.3 2247.8 15.857 19.821 238.4-573.32-79.825 36.16z" fill="#efb319"/>
    <path transform="matrix(8,0,0,-8,0,2950)" d="m198.68 92.287 1.752-4.2048 5.256-2.1024-1.0512 4.5552z" fill="#fcec3d"/>
   </g>
   <path d="m3185.8 2658.1s-142.07-20.007-157.75-65.548c-65.374-189.92-150.34-392.28-296.77-533.75-183.48-177.28-409.2-314.03-681.42-348.63-267.89-34.053-554.89 150.7-705.19 399.05-74.15 122.53-69.031 273.47-134.7 399.05-23.996 45.891-211.77 101.56-211.77 101.56l62.667-434.35-39.617 296.05s113.58-26.861 137.58-72.752c65.667-125.58 83.136-311.05 185.84-427.87 191.68-218.01 398.94-309.81 636.04-319.1 267.71-10.483 541.02 128.61 744.8 302.53 148.08 126.38 237.16 309.97 302.53 499.9 14.281 41.488 128.66 60.817 149.83 64.108l7.9235 139.74z" fill="url(#d)"/>
   <path d="m781.39 2748.4 45.689-254.14 205.6-85.666-34.266 199.89z" fill="url(#e)"/>
   <path d="m1045.4 2448.5 270.57-2167.7-149.42 116.27-363.45 2221.1z" fill="url(#f)"/>
   <path d="m3182.8 2661.3-6.0576-145.38 189.8 109.04 16.154 123.17z" fill="#a7a7a7"/>
   <path d="m1312.2 290.83s519.13 121.34 783.44 122.33c277.62 1.0396 823.82-122.33 823.82-122.33l145.38 177.69 121.15 2051.5s-142.51-20.052-158.19-65.593c-65.374-189.92-154.1-373.4-302.18-499.77-203.79-173.92-476.9-313.07-744.61-302.59-237.1 9.2842-444.82 100.73-636.5 318.74-102.71 116.81-120.1 302.48-185.76 428.06-23.996 45.891-137.3 72.69-137.3 72.69z" fill="#c41c23"/>
   <path d="m3065.7 468.52 298.84 2156.5-185.76-107.02z" fill="#a00"/>
   <path transform="matrix(2.8813 0 0 2.8813 -3856 -3222.5)" d="m2345.7 1236.2c-24.513 5.5037-186.67 41.194-280.09 40.844-82.957-0.3103-220.55-30.436-258.97-39.187l-95.5 716.09c8.3979-3.995 15.717-9.6659 15.875-9.9687 20.453-39.115 26.176-105.66 66.531-151.56 68.73-78.171 145.91-112.42 231.75-115.78 98.57-3.8598 196.09 46.542 268.88 108.66 54.636 46.628 86.289 112.99 109.38 180.06-0.8334-2.4215-0.2174-0.296 3.625 1.75 3.8425 2.0459 9.7481 4.2218 15.656 5.9062 1.809 0.5157 3.1814 0.7204 4.9375 1.1562l-40.594-687.28-41.469-50.688z" fill="url(#b)" opacity=".48161"/>
  </g>
 </g>
</svg>
